<svg width="458" height="122" viewBox="0 0 458 122" fill="none" xmlns="http://www.w3.org/2000/svg">
<path d="M8.17212 118.741C5.72771 117.728 3.77246 115.772 2.7588 113.328L1.83508 113.711C1.29667 112.413 1 110.99 1 109.5V104.65H2V94.95H1V85.25H2V75.55H1V65.85H2V56.15H1V46.45H2V36.75H1V27.05H2V17.35H1V12.5C1 11.0103 1.29667 9.58744 1.83508 8.28907L2.75881 8.67212C3.77246 6.22772 5.72772 4.27246 8.17212 3.2588L7.78907 2.33508C9.08744 1.79667 10.5103 1.5 12 1.5H16.923V2.5H26.7691V1.5H36.6151V2.5H46.4612V1.5H56.3072V2.5H66.1533V1.5H75.9993V2.5H85.8454V1.5H95.6914V2.5H105.537V1.5H115.384V2.5H125.23V1.5H135.076V2.5H144.922V1.5H154.768V2.5H164.614V1.5H174.46V2.5H184.306V1.5H194.152V2.5H203.998V1.5H213.844V2.5H223.69V1.5H233.536V2.5H243.382V1.5H253.228V2.5H263.074V1.5H272.92V2.5H282.766V1.5H292.612V2.5H302.459V1.5H312.305V2.5H322.151V1.5H331.997V2.5H341.843V1.5H351.689V2.5H361.535V1.5H371.381V2.5H381.227V1.5H391.073V2.5H400.919V1.5H410.765V2.5H420.611V1.5H430.457V2.5H440.303V1.5H445.226C446.716 1.5 448.139 1.79667 449.437 2.33508L449.054 3.2588C451.499 4.27246 453.454 6.22772 454.467 8.67212L455.391 8.28907C455.93 9.58744 456.226 11.0103 456.226 12.5V17.35H455.226V27.05H456.226V36.75H455.226V46.45H456.226V56.15H455.226V65.85H456.226V75.55H455.226V85.25H456.226V94.95H455.226V104.65H456.226V109.5C456.226 110.99 455.93 112.413 455.391 113.711L454.467 113.328C453.454 115.772 451.499 117.728 449.054 118.741L449.437 119.665C448.139 120.203 446.716 120.5 445.226 120.5H440.303V119.5H430.457V120.5H420.611V119.5H410.765V120.5H400.919V119.5H391.073V120.5H381.227V119.5H371.381V120.5H361.535V119.5H351.689V120.5H341.843V119.5H331.997V120.5H322.151V119.5H312.305V120.5H302.458V119.5H292.612V120.5H282.766V119.5H272.92V120.5H263.074V119.5H253.228V120.5H243.382V119.5H233.536V120.5H223.69V119.5H213.844V120.5H203.998V119.5H194.152V120.5H184.306V119.5H174.46V120.5H164.614V119.5H154.768V120.5H144.922V119.5H135.076V120.5H125.23V119.5H115.384V120.5H105.538V119.5H95.6915V120.5H85.8455V119.5H75.9994V120.5H66.1534V119.5H56.3073V120.5H46.4613V119.5H36.6153V120.5H26.7692V119.5H16.9232V120.5H12C10.5103 120.5 9.08744 120.203 7.78907 119.665L8.17212 118.741Z" fill="#E9C564" stroke="#E9C564" strokeWidth="2" stroke-dasharray="10 10"/>
</svg>
