<?xml version="1.0" encoding="UTF-8"?>
<svg xmlns="http://www.w3.org/2000/svg" id="Line_Expand" data-name="Line Expand" fill=" var(--primary) " viewBox="0 0 64 64" width="512" height="512"><path d="M60.164,21.159a1,1,0,0,0-1.159-.812l-4.922.867a1,1,0,0,0-.812,1.16l.214,1.211-2.8.489L49,23.816V9a4,4,0,0,0-4-4H38V3a3,3,0,0,0-3-3H29a3,3,0,0,0-3,3V5H19a4,4,0,0,0-4,4V23.819l-1.692.259-2.792-.492.213-1.212a1,1,0,0,0-.812-1.16L5,20.347a1,1,0,0,0-1.16.812L.015,42.822a1,1,0,0,0,.812,1.16l4.923.867a1,1,0,0,0,1.159-.812L7,43.5l.826.146a13.051,13.051,0,0,0,3.25,4.392,3.969,3.969,0,0,0,2.884,4.052,3.977,3.977,0,0,0,5.645,5.339A3.956,3.956,0,0,0,25.763,60.1,3.956,3.956,0,0,0,31.4,63.062l0,.006.4.266a4,4,0,0,0,5.544-1.128,3.918,3.918,0,0,0,.642-2.248,3.933,3.933,0,0,0,.995.138,3.993,3.993,0,0,0,4.005-4.029,3.957,3.957,0,0,0,.975.13,4,4,0,0,0,4-4.029,3.966,3.966,0,0,0,4.956-4.121,13.034,13.034,0,0,0,3.25-4.4L57,43.505l.094.532a1,1,0,0,0,1.16.812l4.922-.867a1,1,0,0,0,.812-1.16ZM28,3a1,1,0,0,1,1-1h6a1,1,0,0,1,1,1V5H28ZM17,9a2,2,0,0,1,2-2H45a2,2,0,0,1,2,2v3a3,3,0,0,1-3,3V14a1,1,0,0,0-1-1H39a1,1,0,0,0-1,1v1H26V14a1,1,0,0,0-1-1H21a1,1,0,0,0-1,1v1a3,3,0,0,1-3-3Zm25,6v2H40V15ZM24,15v2H22V15Zm-7,.974A4.948,4.948,0,0,0,20,17v1a1,1,0,0,0,1,1h4a1,1,0,0,0,1-1V17H38v1a1,1,0,0,0,1,1h4a1,1,0,0,0,1-1V17a4.948,4.948,0,0,0,3-1.026V23.51l-7.6-1.162a9.036,9.036,0,0,0-4.88.619L32,24.041,29.487,22.97a9,9,0,0,0-4.889-.617L17,23.514ZM5.113,42.707l-2.954-.522,3.472-19.7,2.955.521ZM13.53,49.53a2,2,0,0,1,.246-2.817L17.607,43.5a2,2,0,0,1,2.572,3.064l-3.831,3.215A2,2,0,0,1,13.53,49.53Zm5.142,6.129A2,2,0,0,1,16.1,52.594l4.6-3.857A2,2,0,0,1,23.269,51.8Zm6.155,2.668a2,2,0,0,1-2.571-3.065l3.065-2.571a2,2,0,0,1,2.571,3.064ZM30.981,61a2,2,0,0,1-2.57-3.065l3.064-2.571a2,2,0,0,1,2.818.246h0a2,2,0,0,1-.247,2.818Zm4.693.106a1.98,1.98,0,0,1-2.531.69l2.189-1.836a3.993,3.993,0,0,0,.564-.578A1.993,1.993,0,0,1,35.674,61.1ZM50.613,49.4a2,2,0,0,1-2.772.564L39.5,44.447a1,1,0,1,0-1.1,1.668l6.674,4.417a2,2,0,0,1-2.211,3.334L36.19,49.45a.985.985,0,0,0-.368-.15,1,1,0,0,0-.735,1.818l5,3.313a2,2,0,0,1-2.21,3.334l-1.14-.754a3.965,3.965,0,0,0-6.2-3.422,3.94,3.94,0,0,0-4.575-3.3,3.92,3.92,0,0,0-3.311-3.945,3.988,3.988,0,0,0-6.331-4.38l-3.831,3.215a3.926,3.926,0,0,0-.7.79,11,11,0,0,1-2.322-3.585,1,1,0,0,0-.757-.616l-1.361-.24,2.817-15.975,2.954.521a.959.959,0,0,0,.325,0L24.9,24.33a6.982,6.982,0,0,1,3.8.48l.744.317-3.993,1.7a4.988,4.988,0,0,0-2.2,1.836l-3.763,5.673a3.018,3.018,0,0,0,.854,4.163,5.006,5.006,0,0,0,6.926-1.413L28.985,34.5l3.651-.747a8.281,8.281,0,0,0,5.138,5.26,8.9,8.9,0,0,0,1.309.357L50.048,46.63A2,2,0,0,1,50.613,49.4Zm4.675-7.63a1,1,0,0,0-.759.619,10.984,10.984,0,0,1-2.33,3.6,3.942,3.942,0,0,0-1.047-1.028l-8.5-5.623a8.844,8.844,0,0,0,3.1-1.266l1.571-1.03a1,1,0,0,0-1.1-1.672L44.657,36.4a6.978,6.978,0,0,1-6.2.731A6.3,6.3,0,0,1,34.5,33.007c-.062-.2-.114-.413-.158-.624a1,1,0,0,0-1.179-.775l-4.981,1.02a1,1,0,0,0-.633.427l-1.939,2.929a3.006,3.006,0,0,1-4.155.849,1.012,1.012,0,0,1-.288-1.393l3.761-5.672a3,3,0,0,1,1.317-1.1l9.061-3.86a7.039,7.039,0,0,1,3.8-.481l11.45,1.75a1.06,1.06,0,0,0,.323,0l2.96-.518L56.65,41.534Zm3.6.935-3.473-19.7,2.955-.521,3.472,19.7Z"/></svg>
