<svg width="22" height="23" viewBox="0 0 22 23" fill="none" xmlns="http://www.w3.org/2000/svg">
<g clip-path="url(#clip0_15_1436)">
<path fill-rule="evenodd" clip-rule="evenodd" d="M11 22.3359C17.0467 22.3359 21.9785 17.4093 21.9785 11.3626C21.9785 5.31586 17.0467 0.384033 11 0.384033C4.95327 0.384033 0.0214844 5.31581 0.0214844 11.3625C0.0214844 17.4093 4.95327 22.3359 11 22.3359Z" fill="#E6EEFE"/>
<path d="M6.01206 7.94436C6.01206 6.10792 7.50612 4.61389 9.34252 4.61389C11.1789 4.61389 12.673 6.10796 12.673 7.94436C12.673 9.78118 11.1789 11.2756 9.34252 11.2756C7.50612 11.2756 6.01206 9.78118 6.01206 7.94436ZM11.396 12.6963H7.28754C5.84285 12.6963 4.66748 14.1575 4.66748 15.9536V17.6844C4.66748 17.9173 4.85628 18.1061 5.08918 18.1061H13.5959C13.8288 18.1061 14.0176 17.9173 14.0176 17.6844V15.9558C14.0176 14.1585 12.8416 12.6963 11.396 12.6963ZM16.911 10.4673H15.5833V9.13958C15.5833 8.90668 15.3945 8.71788 15.1616 8.71788C14.9287 8.71788 14.7399 8.90668 14.7399 9.13958V10.4673H13.4121C13.1792 10.4673 12.9904 10.6561 12.9904 10.889C12.9904 11.1219 13.1792 11.3107 13.4121 11.3107H14.7399V12.6385C14.7399 12.8714 14.9287 13.0602 15.1616 13.0602C15.3945 13.0602 15.5833 12.8714 15.5833 12.6385V11.3107H16.911C17.1439 11.3107 17.3327 11.1219 17.3327 10.889C17.3327 10.6561 17.1439 10.4673 16.911 10.4673Z" fill="#2F6FDD"/>
</g>
<defs>
<clipPath id="clip0_15_1436">
<rect width="22" height="22" fill="white" transform="translate(0 0.359985)"/>
</clipPath>
</defs>
</svg>
