<svg clip-rule="evenodd" fill-rule="evenodd" image-rendering="optimizeQuality" shape-rendering="geometricPrecision" text-rendering="geometricPrecision" viewBox="0 0 304782 304782" xmlns="http://www.w3.org/2000/svg"><g id="&#x56FE;&#x5C42;_x0020_1" fill="#333"><path d="m44628 260154c29751 29752 68759 44628 107763 44628s78012-14876 107763-44628c29752-29751 44628-68759 44628-107763s-14876-78012-44628-107763c-29751-29752-68759-44628-107763-44628s-78012 14876-107763 44628c-29752 29751-44628 68759-44628 107763s14876 78012 44628 107763zm107763 19232c-32503 0-65009-12398-89803-37192s-37192-57300-37192-89803 12398-65009 37192-89803 57300-37192 89803-37192 65009 12398 89803 37192 37192 57300 37192 89803-12398 65009-37192 89803-57300 37192-89803 37192z" fill-rule="nonzero"/><path d="m90604 155669h51552c131 0 261 4 390 12h6043v6041c8 129 12 259 12 390v51552c0 131-4 261-12 390v6086h-16860v-33h-30699v33h-16860v-6116c-7-119-10-239-10-360v-51552c0-121 3-241 10-360v-6071h6044c129-8 259-12 390-12zm65563 12h6054c129-8 259-12 390-12h51551c131 0 261 4 390 12h6071v20703h-17v23054h17v20703h-16860v-34h-30736v34h-16860v-6477-14226-23054-14272zm-65563-71040h11565 28432 11555 6444v6360l1 83v51551l-1 83v6378h-17999v-17h-28432v17h-17999v-6101c-7-119-10-239-10-360v-51551c0-121 3-241 10-360v-6083zm72007 0h5016 41536 4999 6461v14172h-17v36112h17v14172h-11460v-18h-34997v17h-17999v-6461-7282-36540-7729-6443zm8088 93410h35375c592 0 1076 484 1076 1074v3328c0 592-484 1076-1076 1076h-35375c-591 0-1074-484-1074-1076v-3328c0-590 483-1074 1074-1074zm0 14198h35375c592 0 1076 484 1076 1075v3328c0 590-484 1074-1076 1074h-35375c-591 0-1074-484-1074-1074v-3328c0-591 483-1075 1074-1075zm-54302 2585c1547 0 2801 1254 2801 2800 0 1547-1254 2801-2801 2801-1546 0-2800-1254-2800-2801 0-1546 1254-2800 2800-2800zm496-14089-30 5-39 7h-2c-145 23-293 36-443 36-599 0-1152-193-1603-521l-31-22-23-17-29-23c-667-511-1096-1316-1096-2222 0-1546 1254-2800 2800-2800 1547 0 2801 1254 2801 2800 0 1378-995 2523-2305 2757zm-18201 4397h35375c591 0 1074 483 1074 1074v3328c0 591-483 1075-1074 1075h-35375c-592 0-1076-484-1076-1075v-3328c0-591 484-1074 1076-1074zm100265-53839-10571-10572-10570 10572c-419 418-1103 418-1521 0l-2351-2352c-420-420-418-1101 0-1521l10571-10569-10571-10571c-420-418-418-1102 0-1521l2351-2353c209-209 464-315 760-315 297 0 552 106 761 315l10570 10570 10571-10570c418-418 1102-418 1521 0l2352 2353c209 210 316 464 316 760s-107 551-316 761l-10571 10571 10571 10569c209 209 316 463 316 760 0 298-107 552-316 761l-2352 2352c-419 418-1103 418-1521 0zm-100265-17181h14949v-14950c0-591 482-1075 1076-1075h3325c593 0 1075 484 1075 1075v14950h14950c591 0 1074 483 1074 1074v3327c0 592-483 1074-1074 1074h-14950v14950c0 592-482 1075-1075 1075h-3325c-594 0-1076-483-1076-1075v-14950h-14949c-592 0-1076-482-1076-1074v-3327c0-591 484-1074 1076-1074z"/></g></svg>