<svg xmlns="http://www.w3.org/2000/svg" fill="none" viewBox="0 0 23 21" height="21" width="23">
<path fill="#D75951" d="M2.25 15.75V17.25C2.25 17.847 2.487 18.4193 2.90925 18.8407C3.33075 19.263 3.903 19.5 4.5 19.5H18C18.597 19.5 19.1693 19.263 19.5907 18.8407C20.013 18.4193 20.25 17.847 20.25 17.25V15.75C20.25 15.336 20.586 15 21 15C21.414 15 21.75 15.336 21.75 15.75V17.25C21.75 18.2445 21.3547 19.1985 20.652 19.902C19.9485 20.6047 18.9945 21 18 21C14.3333 21 8.16675 21 4.5 21C3.5055 21 2.5515 20.6047 1.848 19.902C1.14525 19.1985 0.75 18.2445 0.75 17.25C0.75 16.4235 0.75 15.75 0.75 15.75C0.75 15.336 1.086 15 1.5 15C1.914 15 2.25 15.336 2.25 15.75ZM17.0153 6.8235C16.7078 6.92475 16.5 7.212 16.5 7.536V13.524C16.5 13.848 16.7078 14.1353 17.0153 14.2365C17.133 14.2748 17.358 14.307 17.6302 14.31C18.0322 14.3138 18.5888 14.274 18.78 14.274C20.8313 14.274 22.5 12.5978 22.5 10.53C22.5 8.46225 20.8313 6.786 18.78 6.786C18.5888 6.786 18.0322 6.74625 17.6302 6.75C17.358 6.753 17.133 6.78525 17.0153 6.8235ZM6.54675 12.2843C5.9745 13.4745 4.8165 14.28 3.4845 14.28C1.5615 14.28 0 12.6 0 10.53C0 8.46 1.5615 6.78 3.4845 6.78C4.992 6.78 6.27675 7.812 6.75 9.2595C6.96675 10.0177 5.6835 10.0935 5.15025 9.2595C4.8045 8.66475 4.185 8.292 3.4845 8.292C2.337 8.292 1.4055 9.29475 1.4055 10.53C1.4055 11.7653 2.337 12.768 3.4845 12.768C3.95625 12.768 4.3905 12.5992 4.71825 12.2843C5.32725 11.5515 6.687 11.7015 6.54675 12.2843ZM11.31 6.786C9.24 6.786 7.56 8.46375 7.56 10.53C7.56 12.5963 9.24 14.274 11.31 14.274C13.38 14.274 15.06 12.5963 15.06 10.53C15.06 8.46375 13.38 6.786 11.31 6.786ZM18 8.2725C18.3127 8.27925 18.663 8.286 18.78 8.286C20.007 8.286 21 9.29325 21 10.53C21 11.7668 20.007 12.774 18.78 12.774C18.663 12.774 18.3127 12.7807 18 12.7875V8.2725ZM11.31 8.286C12.5512 8.286 13.56 9.291 13.56 10.53C13.56 11.769 12.5512 12.774 11.31 12.774C10.0688 12.774 9.06 11.769 9.06 10.53C9.06 9.291 10.0688 8.286 11.31 8.286ZM2.25 5.25V3.75C2.25 3.153 2.487 2.58075 2.90925 2.15925C3.33075 1.737 3.903 1.5 4.5 1.5H18C18.597 1.5 19.1693 1.737 19.5907 2.15925C20.013 2.58075 20.25 3.153 20.25 3.75V5.25C20.25 5.664 20.586 6 21 6C21.414 6 21.75 5.664 21.75 5.25C21.75 5.25 21.75 4.5765 21.75 3.75C21.75 2.7555 21.3547 1.8015 20.652 1.098C19.9485 0.39525 18.9945 0 18 0C14.3333 0 8.16675 0 4.5 0C3.5055 0 2.5515 0.39525 1.848 1.098C1.14525 1.8015 0.75 2.7555 0.75 3.75V5.25C0.75 5.664 1.086 6 1.5 6C1.914 6 2.25 5.664 2.25 5.25Z" clip-rule="evenodd" fill-rule="evenodd"></path>
</svg>
