<svg width="76" height="70" viewBox="0 0 76 70" fill="none" xmlns="http://www.w3.org/2000/svg">
<path d="M17.1132 44.8237C23.3992 39.4217 27.5343 39.969 29.4889 42.2322C30.3824 43.2668 30.8003 44.6617 30.7553 46.0306C30.7102 47.4017 30.2014 48.7664 29.2428 49.7388C27.1354 51.8759 22.9526 52.1457 17.0063 46.2818L17.6769 45.5998L17.0035 46.2828C16.6264 45.911 16.622 45.3035 16.9938 44.9264C17.0314 44.8885 17.0712 44.8542 17.1132 44.8237Z" fill="#009954"/>
<path d="M30.7104 45.0677C30.7509 45.3866 30.766 45.7093 30.7553 46.0304C30.7449 46.3486 30.7095 46.6661 30.6492 46.9785L25.1662 46.8039C24.6385 46.7874 24.2242 46.3461 24.2407 45.8184C24.2574 45.2909 24.6985 44.8766 25.2262 44.8931L30.7104 45.0677Z" fill="#007C44"/>
<path d="M11.3034 33.4723C20.2333 30.4537 24.346 32.7625 25.4296 35.9505C25.9216 37.3972 25.7671 39.023 25.1426 40.4306C24.5171 41.8406 23.414 43.0471 22.0098 43.6537C18.9126 44.9911 14.4286 43.48 10.6703 34.7792C10.4604 34.2928 10.6836 33.7287 11.1698 33.5186C11.2138 33.4997 11.2585 33.4844 11.3034 33.4723Z" fill="#00CB75"/>
<path d="M25.4692 39.5315C25.3815 39.8382 25.2725 40.139 25.1433 40.4306C25.0137 40.7223 24.8638 41.0054 24.695 41.2763L19.0541 38.7738C18.5721 38.561 18.354 37.9969 18.567 37.515C18.7799 37.033 19.3439 36.8149 19.8258 37.028L25.4692 39.5315Z" fill="#00A55F"/>
<path d="M12.0474 19.8451C21.3017 21.6952 23.7123 25.7518 23.057 29.0543C22.759 30.5558 21.8115 31.8882 20.5655 32.7957C19.3199 33.7029 17.763 34.1959 16.246 34.0194C12.8931 33.6291 9.7635 30.0787 10.8596 20.6661L11.8112 20.7746L10.8586 20.6638C10.9197 20.1377 11.3961 19.7608 11.9222 19.8219C11.965 19.8268 12.0066 19.8349 12.0474 19.8451Z" fill="#009954"/>
<path d="M21.3087 32.1693C21.0762 32.3952 20.8274 32.6048 20.5655 32.7957C20.3115 32.9808 20.0445 33.1486 19.7676 33.2969L16.1204 28.3143C15.8101 27.8879 15.9041 27.2908 16.3303 26.9803C16.7567 26.67 17.3538 26.764 17.6643 27.1902L21.3087 32.1693Z" fill="#007C44"/>
<path d="M16.5296 8.54134C24.9538 12.7108 26.2289 17.2409 24.7462 20.2566C24.0696 21.6327 22.812 22.6758 21.3777 23.2295C19.9398 23.7848 18.3075 23.8587 16.886 23.2961C13.7476 22.0538 11.6413 17.8158 15.1302 9.00314C15.3252 8.51066 15.8823 8.26872 16.375 8.4635C16.4297 8.48524 16.4814 8.51136 16.5296 8.54134Z" fill="#00CB75"/>
<path d="M22.2439 22.8236C21.9652 22.9791 21.6756 23.115 21.3782 23.2298C21.0795 23.3452 20.772 23.4399 20.4601 23.5121L18.2384 17.753C18.048 17.2607 18.2929 16.707 18.7854 16.5166C19.2777 16.3264 19.8314 16.5713 20.0218 17.0636L22.2439 22.8236Z" fill="#00A55F"/>
<path d="M29.4425 0.706335C32.2804 9.71868 29.8813 13.7875 26.6672 14.8031C25.2096 15.2637 23.5873 15.0742 22.1935 14.4192C20.7978 13.7633 19.6156 12.6341 19.0393 11.2166C17.769 8.09118 19.3763 3.64102 28.1565 0.071675C28.6473 -0.127664 29.2065 0.10744 29.4059 0.598162C29.4204 0.633752 29.4325 0.669868 29.4425 0.706335Z" fill="#009954"/>
<path d="M23.0881 14.7658C22.782 14.6715 22.4824 14.5558 22.1927 14.4195C21.9042 14.284 21.6251 14.1281 21.3584 13.9539L23.9794 8.36642C24.203 7.88849 24.7717 7.68214 25.2496 7.9055C25.7276 8.12903 25.9339 8.69777 25.7106 9.1757L23.0881 14.7658Z" fill="#007C44"/>
<path d="M26.5722 56.232C26.7243 47.4565 30.0528 44.57 33.2052 44.6163C34.6476 44.6373 36.0398 45.2856 37.0865 46.2804C38.134 47.2761 38.8525 48.6332 38.9464 50.0714C39.1532 53.2292 36.4194 56.7144 27.588 57.2928L27.5881 57.2947C27.0597 57.3293 26.603 56.9287 26.5685 56.4003C26.5648 56.3431 26.566 56.287 26.5722 56.232Z" fill="#00CB75"/>
<path d="M36.2755 45.6265C36.5634 45.8218 36.8353 46.0411 37.0872 46.2804C37.299 46.4815 37.4973 46.6977 37.6798 46.9261L33.7407 51.1897C33.3766 51.5725 32.7708 51.5875 32.3881 51.2234C32.0052 50.8593 31.9903 50.2535 32.3543 49.8708L36.2755 45.6265Z" fill="#00A55F"/>
<path d="M46.5108 42.2327C48.4655 39.9695 52.6006 39.4222 58.8865 44.8241C58.9286 44.8546 58.9684 44.889 59.0059 44.9269C59.3778 45.304 59.3734 45.9115 58.9963 46.2833L58.3229 45.6003L58.9935 46.2823C53.0471 52.1462 48.8643 51.8764 46.757 49.7392C45.7983 48.7669 45.2896 47.4022 45.2445 46.031C45.1994 44.6621 45.6174 43.2673 46.5108 42.2327Z" fill="#00CB75"/>
<path d="M44.3468 45.0451C43.8191 45.0615 43.4048 45.5028 43.4213 46.0304C42.5726 46.5447 39.0101 46.8933 44.4068 46.9559L50.8328 46.8039C51.3605 46.7874 51.7748 46.3461 51.7583 45.8184C51.7417 45.2909 51.3006 44.8766 50.7728 44.8931L44.3468 45.0451Z" fill="#00A55F"/>
<path d="M50.5707 35.9505C51.6543 32.7625 55.767 30.4537 64.6969 33.4723C64.7418 33.4844 64.7865 33.4997 64.8305 33.5186C65.3167 33.7287 65.5406 34.2932 65.3307 34.7795C61.5724 43.4803 57.0877 44.9911 53.9905 43.6537C52.5863 43.0471 51.4832 41.8406 50.8577 40.4306C50.2332 39.023 50.0787 37.3972 50.5707 35.9505Z" fill="#009954"/>
<path d="M51.3252 41.3095C51.148 41.0286 50.9909 40.7342 50.8561 40.4306C50.7319 40.1509 50.6266 39.8629 50.541 39.569L56.1735 37.028C56.6555 36.8149 57.2195 37.033 57.4323 37.515C57.6454 37.9969 57.4273 38.561 56.9453 38.7738L51.3252 41.3095Z" fill="#007C44"/>
<path d="M52.9417 29.0543C52.2863 25.7518 54.697 21.6952 63.9513 19.8451C63.9921 19.8349 64.0337 19.8268 64.0764 19.8219C64.6026 19.7608 65.0789 20.1377 65.1401 20.6638L64.1874 20.7746L65.1391 20.6661C66.2352 30.0787 63.1055 33.6291 59.7527 34.0194C58.2356 34.1959 56.6788 33.7029 55.4332 32.7957C54.1871 31.8882 53.2397 30.5558 52.9417 29.0543Z" fill="#00CB75"/>
<path d="M56.2016 33.281C55.9352 33.1365 55.6781 32.9742 55.4332 32.7957C55.1622 32.5983 54.9052 32.3807 54.666 32.1458L58.3344 27.1902C58.6449 26.764 59.242 26.67 59.6684 26.9803C60.0946 27.2908 60.1886 27.8879 59.8783 28.3143L56.2016 33.281Z" fill="#00A55F"/>
<path d="M51.2518 20.2566C49.7691 17.2409 51.0442 12.7108 59.4683 8.54134C59.5165 8.51136 59.5683 8.48524 59.623 8.4635C60.1156 8.26872 60.6729 8.50979 60.8679 9.00226C64.3568 17.8149 62.2503 22.0538 59.1119 23.2961C57.6904 23.8587 56.0582 23.7848 54.6202 23.2295C53.1859 22.6758 51.9283 21.6327 51.2518 20.2566Z" fill="#009954"/>
<path d="M55.5014 23.5031C55.2026 23.432 54.9082 23.3404 54.6218 23.2298C54.3122 23.1103 54.0108 22.9679 53.7217 22.8043L55.9782 17.0636C56.1686 16.5713 56.7223 16.3264 57.2146 16.5166C57.7071 16.707 57.952 17.2607 57.7616 17.753L55.5014 23.5031Z" fill="#007C44"/>
<path d="M49.3334 14.8031C46.1193 13.7875 43.7202 9.71868 46.5581 0.706335C46.5681 0.669868 46.5802 0.633752 46.5947 0.598162C46.7941 0.10744 47.3539 -0.128541 47.8446 0.0707984C56.6248 3.64015 58.2316 8.09118 56.9613 11.2166C56.385 12.6341 55.2028 13.7633 53.8071 14.4192C52.4133 15.0742 50.791 15.2637 49.3334 14.8031Z" fill="#00CB75"/>
<path d="M54.5923 13.9846C54.3401 14.1464 54.0772 14.2916 53.8061 14.419C53.499 14.5633 53.1809 14.685 52.8557 14.7821L50.2883 9.17521C50.065 8.69728 50.2713 8.12855 50.7492 7.90501C51.2272 7.68165 51.7959 7.88801 52.0194 8.36593L54.5923 13.9846Z" fill="#00A55F"/>
<path d="M42.794 44.6163C45.9464 44.57 49.2749 47.4565 49.427 56.232C49.4332 56.287 49.4344 56.3431 49.4307 56.4003C49.3962 56.9287 48.9395 57.3293 48.4111 57.2947L48.4112 57.2928C39.5798 56.7144 36.8461 53.2292 37.0528 50.0714C37.1467 48.6332 37.8652 47.2761 38.9127 46.2804C39.9594 45.2856 41.3516 44.6373 42.794 44.6163Z" fill="#009954"/>
<path d="M38.2559 47.0088C38.4559 46.7495 38.6761 46.5058 38.9131 46.2804C39.1396 46.0649 39.3825 45.8661 39.6384 45.686L43.6461 49.8708C44.01 50.2535 43.9951 50.8592 43.6122 51.2234C43.2295 51.5875 42.6238 51.5724 42.2596 51.1897L38.2559 47.0088Z" fill="#007C44"/>
<path d="M17.8488 63.5078C16.0018 61.8434 12.2145 58.7695 12.2145 58.295C12.2145 57.6392 11.6827 57.1074 11.0269 57.1074H1.18772C0.531843 57.1074 9.65603e-05 57.6392 9.65603e-05 58.295C9.65603e-05 58.5615 0.0879321 58.8075 0.236078 59.0056L2.86255 63.2457L0.16367 67.8842L0.161216 67.8828C-0.168562 68.4496 0.0237648 69.1767 0.590576 69.5064C0.778695 69.616 0.984696 69.6677 1.18772 69.6676H19.0364C19.6923 69.6676 20.224 69.1358 20.224 68.4799V63.3874C20.224 62.7315 19.6923 62.1998 19.0364 62.1998C18.3805 62.1998 17.8488 62.7315 17.8488 63.3874V63.5078Z" fill="#B84A41"/>
<path d="M64.9735 57.1064C64.3176 57.1064 63.7859 57.6382 63.7859 58.2941C63.7859 58.8179 64.1249 59.2625 64.5957 59.4203C63.0855 59.6865 57.5301 62.1988 56.964 62.1988C56.3081 62.1988 55.7764 62.7305 55.7764 63.3864V68.479C55.7764 69.1348 56.3081 69.6666 56.964 69.6666H74.8127C75.0157 69.6668 75.2217 69.615 75.4098 69.5055C75.9766 69.1757 76.1689 68.4486 75.8392 67.8818L75.8367 67.8832L73.1378 63.2448L75.7643 59.0046C75.9124 58.8065 76.0003 58.5606 76.0003 58.2941C76.0003 57.6382 75.4685 57.1064 74.8127 57.1064H64.9735Z" fill="#B84A41"/>
<path d="M49.5616 52.0146H48.1972H11.0265C10.3706 52.0146 9.83887 52.5464 9.83887 53.2023V63.387C9.83887 64.0429 10.3706 64.5746 11.0265 64.5746H64.9736C65.6295 64.5746 66.1613 64.0429 66.1613 63.387V53.2023C66.1613 52.5464 65.6295 52.0146 64.9736 52.0146H49.5616Z" fill="#E35B50"/>
<path d="M37.9994 15.4351C41.2381 15.4351 44.1705 16.7482 46.293 18.8705C48.4152 20.9929 49.7284 23.9253 49.7284 27.164C49.7284 30.4025 48.4152 33.3351 46.293 35.4575C44.1705 37.5798 41.2381 38.8929 37.9994 38.8929C34.7607 38.8929 31.8283 37.5798 29.7059 35.4575C27.5837 33.3351 26.2705 30.4025 26.2705 27.164C26.2705 23.9253 27.5837 20.9929 29.7059 18.8705C31.8283 16.7482 34.7607 15.4351 37.9994 15.4351Z" fill="#FB962D"/>
<path d="M33.3707 25.0172C33.2811 25.6651 33.7339 26.2635 34.3819 26.3531C35.0299 26.4427 35.6283 25.9898 35.7179 25.3418C35.8948 24.0725 36.4414 23.4214 37.0494 23.227C37.4025 23.1141 37.7893 23.1435 38.135 23.286C38.4825 23.4293 38.7812 23.684 38.9573 24.0201C39.2714 24.6197 39.201 25.5263 38.3803 26.6387L34.6971 31.6529L34.695 31.6513C34.3069 32.1797 34.4207 32.9232 34.9491 33.3114C35.161 33.4671 35.4077 33.5421 35.6521 33.5418L41.4554 33.5419C42.1113 33.5419 42.643 33.0102 42.643 32.3543C42.643 31.6984 42.1113 31.1667 41.4554 31.1667H37.9946L40.2916 28.0395C41.741 26.0747 41.7524 24.2578 41.0541 22.9254C40.61 22.0776 39.8773 21.444 39.0351 21.0966C38.1915 20.7486 37.2281 20.6838 36.3257 20.9723C34.923 21.421 33.6954 22.6871 33.3707 25.0172Z" fill="white"/>
</svg>
