<svg xmlns="http://www.w3.org/2000/svg" fill="none" viewBox="0 0 24 25" height="25" width="24">
<path stroke-linejoin="round" stroke-linecap="round" stroke-width="1.5" stroke="#D75951" d="M8.25002 19.1443C8.25002 19.5421 8.09198 19.9236 7.81068 20.2049C7.52937 20.4863 7.14784 20.6443 6.75002 20.6443C6.35219 20.6443 5.97066 20.4863 5.68936 20.2049C5.40805 19.9236 5.25002 19.5421 5.25002 19.1443M8.25002 19.1443C8.25002 18.7465 8.09198 18.3649 7.81068 18.0836C7.52937 17.8023 7.14784 17.6443 6.75002 17.6443C6.35219 17.6443 5.97066 17.8023 5.68936 18.0836C5.40805 18.3649 5.25002 18.7465 5.25002 19.1443M8.25002 19.1443H14.25M5.25002 19.1443H3.37502C3.07665 19.1443 2.7905 19.0258 2.57952 18.8148C2.36855 18.6038 2.25002 18.3177 2.25002 18.0193V14.6443M14.25 19.1443H16.5M14.25 19.1443V14.6443M2.25002 14.6443V7.00929C2.24843 6.73546 2.34848 6.47077 2.53081 6.26646C2.71313 6.06215 2.96477 5.93274 3.23702 5.90329C6.57006 5.55731 9.92997 5.55731 13.263 5.90329C13.828 5.96129 14.25 6.44129 14.25 7.00929V7.96729M2.25002 14.6443H14.25M19.5 19.1443C19.5 19.5421 19.342 19.9236 19.0607 20.2049C18.7794 20.4863 18.3978 20.6443 18 20.6443C17.6022 20.6443 17.2207 20.4863 16.9394 20.2049C16.6581 19.9236 16.5 19.5421 16.5 19.1443M19.5 19.1443C19.5 18.7465 19.342 18.3649 19.0607 18.0836C18.7794 17.8023 18.3978 17.6443 18 17.6443C17.6022 17.6443 17.2207 17.8023 16.9394 18.0836C16.6581 18.3649 16.5 18.7465 16.5 19.1443M19.5 19.1443H20.625C21.246 19.1443 21.754 18.6403 21.715 18.0203C21.5141 14.7179 20.4019 11.5358 18.502 8.82729C18.3211 8.57357 18.0848 8.3643 17.8111 8.21532C17.5373 8.06633 17.2333 7.98151 16.922 7.96729H14.25M14.25 7.96729V14.6443"></path>
</svg>
