<svg width="22" height="22" viewBox="0 0 22 22" fill="none" xmlns="http://www.w3.org/2000/svg">
<g clip-path="url(#clip0_15_1331)">
<path d="M20.7068 14.5836C18.0512 20.1523 13.9649 21.3555 11.0001 21.3555C7.66137 21.3555 4.51606 19.6883 2.58246 16.9684C0.636066 14.2227 0.171918 10.7422 1.2934 7.41636L1.4997 6.99102C3.07231 3.2398 6.88798 0.644531 11.0001 0.644531C14.3388 0.644531 17.4841 2.31172 19.4177 5.03164C21.3641 7.77734 21.8283 11.2578 20.7068 14.5836Z" fill="#65B1FC"/>
<path d="M20.7067 14.5836C18.0511 20.1523 13.9648 21.3555 11 21.3555V0.644531C14.3387 0.644531 17.484 2.31172 19.4176 5.03164C21.364 7.77734 21.8282 11.2578 20.7067 14.5836Z" fill="#1689FC"/>
<path d="M19.9459 4.65777C17.8835 1.77027 14.5447 0 10.9998 0C6.57834 0 2.53068 2.77578 0.867788 6.86207L0.648605 7.31328C-0.53497 10.9173 -0.0741297 14.3311 2.05373 17.3421C4.11618 20.2296 7.4549 22 10.9998 22C15.3697 22 19.3658 19.2887 21.0803 15.2925L21.2736 14.9058C22.5621 11.2398 22.1107 7.71796 19.9459 4.65777ZM3.11076 16.5945C1.28033 14.0164 0.854898 10.7551 1.91193 7.62266L2.07951 7.27457C3.12365 4.77379 5.19904 2.83594 7.674 1.90777C6.11427 3.94453 5.17321 7.90621 5.28927 9.19527C5.27638 9.23398 5.26345 9.27261 5.26345 9.32422C4.92829 13.6425 5.90798 17.8105 7.75134 20.1437C5.90802 19.4734 4.27096 18.2316 3.11076 16.5945ZM10.3553 20.5949C9.90416 20.4402 9.45294 20.1008 9.02751 19.6496C7.22287 17.7031 6.23029 13.591 6.55255 9.4273V9.31133C6.55255 9.27261 6.56544 9.22109 6.56544 9.18238C6.93923 5.17339 8.51193 2.01094 10.3553 1.40504V20.5949ZM11.6444 20.582V1.40504C13.6295 2.06246 15.2924 5.7148 15.4857 10.0718C15.6662 14.0937 14.6608 17.8707 12.9205 19.7012C12.508 20.1265 12.0827 20.4402 11.6444 20.582ZM20.0877 14.3773C18.644 17.4195 16.6072 19.2929 14.2483 20.1309C15.9756 17.9523 16.9553 14.068 16.7748 10.0203C16.6201 6.59136 15.6533 3.6352 14.2483 1.85625C16.0916 2.52652 17.7287 3.76836 18.8888 5.40543C20.7193 7.98355 21.1447 11.2449 20.0877 14.3773Z" fill="#96EBE6"/>
<path d="M19.9461 4.65777C17.8836 1.77027 14.5449 0 11 0V22C15.3699 22 19.366 19.2887 21.0805 15.2925L21.2738 14.9058C22.5622 11.2398 22.1109 7.71796 19.9461 4.65777ZM11.6445 20.582V1.40504C13.6296 2.06246 15.2926 5.7148 15.4859 10.0718C15.6664 14.0937 14.6609 17.8707 12.9207 19.7012C12.5082 20.1265 12.0829 20.4402 11.6445 20.582ZM20.0879 14.3773C18.6441 17.4195 16.6074 19.2929 14.2485 20.1309C15.9758 17.9523 16.9555 14.068 16.775 10.0203C16.6203 6.59136 15.6535 3.6352 14.2484 1.85625C16.0918 2.52652 17.7289 3.76836 18.889 5.40543C20.7195 7.98355 21.1449 11.2449 20.0879 14.3773Z" fill="#00C8C8"/>
<path d="M20.0234 6.48828H1.97656C0.906598 6.48828 0 7.35191 0 8.42188V13.5781C0 14.648 0.906598 15.5117 1.97656 15.5117H20.0234C21.0934 15.5117 22 14.648 22 13.5781V8.42188C22 7.35191 21.0934 6.48828 20.0234 6.48828Z" fill="#0053BF"/>
<path d="M22 8.42188V13.5781C22 14.648 21.0934 15.5117 20.0234 15.5117H11V6.48828H20.0234C21.0934 6.48828 22 7.35191 22 8.42188Z" fill="#05377F"/>
<path d="M14.1581 9.99449L12.869 12.5726C12.753 12.7918 12.5338 12.9336 12.2889 12.9336C12.044 12.9336 11.8248 12.7918 11.7088 12.5726L10.9998 11.1547L10.2909 12.5726C10.0718 13.0109 9.3498 13.0109 9.13066 12.5726L7.8416 9.99449C7.68691 9.68512 7.81586 9.29844 8.13813 9.13086C8.4475 8.97618 8.83418 9.10504 9.00176 9.42731L9.71078 10.8453L10.4198 9.42731C10.5358 9.20821 10.7679 9.09215 10.9998 9.09215C11.2318 9.09215 11.4639 9.20821 11.5799 9.42731L12.2889 10.8453L12.9979 9.42731C13.1655 9.10504 13.5522 8.97618 13.8615 9.13086C14.1838 9.29844 14.3127 9.68512 14.1581 9.99449Z" fill="#E1F1FA"/>
<path d="M18.7345 12.9336C18.4903 12.9336 18.2675 12.7957 18.158 12.5773L17.4455 11.1523L16.733 12.5773C16.5139 13.0141 15.7989 13.0141 15.5798 12.5773L14.3449 10.1068C14.265 10.0087 14.2134 9.88718 14.2045 9.75372C14.1819 9.39871 14.4318 9.09346 14.7867 9.07017C15.0561 9.0639 15.3281 9.19105 15.4439 9.42265L16.1564 10.8477L16.8689 9.42265C17.088 8.98583 17.803 8.98583 18.022 9.42265L18.7345 10.8477L19.447 9.42265C19.6069 9.10352 19.994 8.97702 20.3119 9.13437C20.6304 9.29361 20.7594 9.68072 20.6001 9.9992L19.3111 12.5773C19.2016 12.7957 18.9788 12.9336 18.7345 12.9336Z" fill="#BFE1FF"/>
<path d="M7.17461 9.06764C6.92096 9.0651 6.67234 9.191 6.5565 9.42265L5.84399 10.8477L5.13148 9.42265C4.89932 8.95992 4.208 8.9634 3.97838 9.42265L3.26587 10.8477L2.55336 9.42265C2.39347 9.10352 2.00577 8.97702 1.68853 9.13437C1.37004 9.29361 1.24101 9.68072 1.40025 9.9992L2.68931 12.5773C2.79884 12.7957 3.02163 12.9336 3.26587 12.9336C3.5101 12.9336 3.73289 12.7957 3.84242 12.5773L4.55493 11.1523L5.26744 12.5773C5.37697 12.7957 5.59976 12.9336 5.84399 12.9336C6.08823 12.9336 6.31102 12.7957 6.42055 12.5773L7.63472 10.149C7.72663 10.0445 7.78579 9.90665 7.79585 9.75372C7.81849 9.39871 7.52961 9.09093 7.17461 9.06764Z" fill="#E1F1FA"/>
<path d="M14.1582 9.99449L12.8691 12.5726C12.7531 12.7918 12.534 12.9336 12.2891 12.9336C12.0441 12.9336 11.825 12.7918 11.709 12.5726L11 11.1547V9.09215C11.232 9.09215 11.4641 9.20821 11.5801 9.42731L12.2891 10.8453L12.998 9.42731C13.1656 9.10504 13.5523 8.97618 13.8617 9.13086C14.1839 9.29844 14.3129 9.68512 14.1582 9.99449Z" fill="#BFE1FF"/>
</g>
<defs>
<clipPath id="clip0_15_1331">
<rect width="22" height="22" fill="white"/>
</clipPath>
</defs>
</svg>
