<svg width="22" height="22" viewBox="0 0 22 22" fill="none" xmlns="http://www.w3.org/2000/svg">
<g clip-path="url(#clip0_15_1357)">
<path d="M22 11C22 4.92487 17.0751 0 11 0C4.92487 0 0 4.92487 0 11C0 17.0751 4.92487 22 11 22C17.0751 22 22 17.0751 22 11Z" fill="url(#paint0_linear_15_1357)"/>
<path opacity="0.1" d="M19.2788 3.76316C17.6751 6.7071 15.4071 9.74368 12.5732 12.5776C9.73922 15.4116 6.70264 17.6753 3.76303 19.2789C3.57874 19.1188 3.39975 18.9518 3.22606 18.7782C2.17622 17.7634 1.33892 16.5497 0.762982 15.208C0.187043 13.8662 -0.11601 12.4233 -0.128504 10.9632C-0.140997 9.50313 0.137317 8.05519 0.690211 6.70379C1.24311 5.3524 2.05951 4.1246 3.09183 3.09199C4.12415 2.05938 5.35172 1.24263 6.70296 0.68936C8.0542 0.136089 9.50207 -0.14263 10.9621 -0.130544C12.4222 -0.118457 13.8653 0.184192 15.2072 0.759757C16.5491 1.33532 17.763 2.17228 18.778 3.22184C18.9517 3.39552 19.1186 3.57596 19.2788 3.76316Z" fill="white"/>
<path d="M13.6052 5.21051H8.39466C7.55015 5.21051 6.74024 5.54599 6.14308 6.14314C5.54593 6.7403 5.21045 7.55022 5.21045 8.39472V13.6052C5.21045 14.4498 5.54593 15.2597 6.14308 15.8568C6.74024 16.454 7.55015 16.7895 8.39466 16.7895H13.6052C14.4497 16.7895 15.2596 16.454 15.8568 15.8568C16.4539 15.2597 16.7894 14.4498 16.7894 13.6052V8.39472C16.7894 7.55022 16.4539 6.7403 15.8568 6.14314C15.2596 5.54599 14.4497 5.21051 13.6052 5.21051ZM15.7762 13.1479C15.7762 13.845 15.4993 14.5135 15.0064 15.0065C14.5135 15.4994 13.8449 15.7763 13.1478 15.7763H8.85203C8.15493 15.7763 7.48638 15.4994 6.99345 15.0065C6.50053 14.5135 6.22361 13.845 6.22361 13.1479V8.85209C6.22361 8.15499 6.50053 7.48644 6.99345 6.99351C7.48638 6.50059 8.15493 6.22367 8.85203 6.22367H13.1478C13.8449 6.22367 14.5135 6.50059 15.0064 6.99351C15.4993 7.48644 15.7762 8.15499 15.7762 8.85209V13.1479Z" fill="white"/>
<path d="M13.1118 8.90998L13.0843 8.88248L13.0612 8.85932C12.5139 8.31396 11.7727 8.00791 11.0001 8.00827C10.61 8.01092 10.2242 8.09042 9.86474 8.24222C9.50532 8.39402 9.17933 8.61516 8.9054 8.89298C8.63147 9.17081 8.41497 9.49989 8.26826 9.86141C8.12155 10.2229 8.04751 10.6098 8.05037 11C8.04978 11.7918 8.36189 12.5518 8.91879 13.1146C9.19158 13.3907 9.51663 13.6097 9.87497 13.7588C10.2333 13.9079 10.6178 13.9841 11.0059 13.983C11.5881 13.9708 12.1541 13.7894 12.635 13.4611C13.1159 13.1327 13.4908 12.6714 13.7141 12.1336C13.9374 11.5958 13.9993 11.0046 13.8923 10.4322C13.7854 9.85983 13.5142 9.33091 13.1118 8.90998ZM11.0001 12.9626C10.6108 12.9681 10.2287 12.8576 9.90234 12.6453C9.57599 12.433 9.32016 12.1284 9.16739 11.7703C9.01461 11.4122 8.9718 11.0167 9.0444 10.6342C9.11699 10.2517 9.30171 9.89945 9.57506 9.62221C9.84842 9.34497 10.198 9.1553 10.5795 9.07732C10.9609 8.99933 11.357 9.03656 11.7172 9.18426C12.0774 9.33197 12.3856 9.58348 12.6025 9.9068C12.8194 10.2301 12.9352 10.6106 12.9352 11C12.9372 11.2559 12.8886 11.5098 12.7924 11.747C12.6961 11.9841 12.5541 12.2 12.3744 12.3823C12.1947 12.5646 11.9808 12.7096 11.745 12.8092C11.5092 12.9088 11.2561 12.9609 11.0001 12.9626Z" fill="white"/>
<path d="M14.8252 7.87077C14.8259 7.96365 14.8084 8.05576 14.7735 8.14184C14.7386 8.22792 14.6871 8.30628 14.6219 8.37242C14.5567 8.43857 14.4791 8.4912 14.3935 8.52732C14.3079 8.56343 14.2161 8.58231 14.1232 8.58288C14.0311 8.58283 13.9399 8.56452 13.855 8.52899C13.77 8.49346 13.6929 8.44143 13.6282 8.3759C13.5301 8.27642 13.4635 8.15034 13.4364 8.0133C13.4093 7.87626 13.4231 7.73429 13.4759 7.60499C13.5288 7.4757 13.6184 7.36476 13.7337 7.28593C13.8491 7.20711 13.985 7.16386 14.1246 7.16156C14.2881 7.16153 14.4464 7.2189 14.5719 7.32367L14.5864 7.33814C14.6097 7.35714 14.631 7.37848 14.65 7.40182L14.666 7.41919C14.7696 7.54683 14.8258 7.70638 14.8252 7.87077Z" fill="white"/>
</g>
<defs>
<linearGradient id="paint0_linear_15_1357" x1="3.22184" y1="3.22184" x2="18.7782" y2="18.7782" gradientUnits="userSpaceOnUse">
<stop stop-color="#FAE100"/>
<stop offset="0.15" stop-color="#FCB720"/>
<stop offset="0.3" stop-color="#FF7950"/>
<stop offset="0.5" stop-color="#FF1C74"/>
<stop offset="1" stop-color="#6C1CD1"/>
</linearGradient>
<clipPath id="clip0_15_1357">
<rect width="22" height="22" fill="white"/>
</clipPath>
</defs>
</svg>
