<?xml version="1.0" encoding="UTF-8"?>
<svg id="_Ñëîé_1" data-name="Ñëîé_1" xmlns="http://www.w3.org/2000/svg" version="1.1" viewBox="0 0 2061.1 645.08">
  <!-- Generator: Adobe Illustrator 29.1.0, SVG Export Plug-In . SVG Version: 2.1.0 Build 142)  -->
  <defs>
    <style>
      .st0 {
        fill: #fff;
      }
    </style>
  </defs>
  <rect width="2061.1" height="645.08" rx="99.09" ry="99.09"/>
  <g>
    <path className="st0" d="M503.59,400.04c-2.88,7.15-5.6,14.54-8.8,21.72-10.48,23.55-24.98,44.5-42.16,63.61-7.34,8.16-15.87,14.92-26.34,18.85-11.1,4.16-22.29,3.7-33.38.29-7.67-2.36-15.14-5.35-22.75-7.93-10.53-3.58-21.31-5.76-32.51-5.15-10.19.56-19.98,2.96-29.49,6.55-8.81,3.33-17.57,6.73-26.85,8.66-14.14,2.93-26.54-.82-37.84-9.24-11.57-8.62-20.58-19.67-29.26-31.04-11.92-15.61-22.09-32.25-29.97-50.26-9.17-20.95-15.95-42.64-19.17-65.3-3.59-25.23-3.51-50.4,4.49-74.92,9.46-29.02,26.97-51.54,54.67-65.41,14.83-7.42,30.56-10.99,47.14-10.06,10.8.61,21.01,4.03,31.15,7.56,8.38,2.92,16.83,5.65,25.2,8.62,6.9,2.44,13.4.91,19.97-1.34,11.66-3.99,23.3-8.07,35.07-11.72,13.48-4.18,27.22-5.44,41.34-3.31,14.27,2.14,27.81,6.06,40.32,13.33,11.24,6.53,20.51,15.2,28.16,26.1-31.36,18.98-47.49,46.35-44.87,83.28,2.61,36.84,23.27,61.12,55.87,77.09Z"/>
    <path className="st0" d="M417.87,103.55c0,5.49.41,10.87-.07,16.16-1.68,18.52-9.75,34.34-21.59,48.32-8.65,10.21-18.62,18.92-30.81,24.76-9.93,4.76-20.38,7.02-31.63,6.08-1-5.58-.74-11.21.04-16.82,2.77-19.86,11.96-36.58,25.56-50.96,8.92-9.44,19.82-16.09,31.75-21.13,7.82-3.3,15.89-5.59,24.35-6.39.68-.06,1.37,0,2.4,0Z"/>
  </g>
  <g>
    <path className="st0" d="M604.27,502.67l83.02-216.17h30.82l88.48,216.17h-32.59l-25.22-65.47h-90.39l-23.74,65.47h-30.38ZM666.64,413.9h73.29l-22.56-59.87c-6.88-18.19-11.99-33.13-15.34-44.83-2.75,13.86-6.64,27.62-11.65,41.29l-23.74,63.41Z"/>
    <path className="st0" d="M826.05,562.69v-216.62h24.18v20.35c5.7-7.96,12.14-13.93,19.32-17.92,7.18-3.98,15.88-5.97,26.1-5.97,13.37,0,25.17,3.44,35.39,10.32,10.22,6.88,17.94,16.59,23.15,29.12,5.21,12.53,7.82,26.27,7.82,41.21,0,16.02-2.88,30.45-8.63,43.28-5.75,12.83-14.11,22.66-25.07,29.49-10.96,6.83-22.49,10.25-34.58,10.25-8.85,0-16.79-1.87-23.81-5.6-7.03-3.74-12.8-8.45-17.33-14.16v76.24h-26.54ZM850.08,425.26c0,20.15,4.08,35.05,12.24,44.68,8.16,9.63,18.04,14.45,29.64,14.45s21.9-4.99,30.3-14.97c8.41-9.98,12.61-25.44,12.61-46.38s-4.1-34.9-12.31-44.83c-8.21-9.93-18.01-14.89-29.42-14.89s-21.31,5.28-30.01,15.85c-8.7,10.57-13.05,25.93-13.05,46.08Z"/>
    <path className="st0" d="M994,562.69v-216.62h24.18v20.35c5.7-7.96,12.14-13.93,19.32-17.92,7.18-3.98,15.88-5.97,26.1-5.97,13.37,0,25.17,3.44,35.39,10.32,10.22,6.88,17.94,16.59,23.15,29.12,5.21,12.53,7.82,26.27,7.82,41.21,0,16.02-2.88,30.45-8.63,43.28-5.75,12.83-14.11,22.66-25.07,29.49-10.96,6.83-22.49,10.25-34.58,10.25-8.85,0-16.79-1.87-23.81-5.6-7.03-3.74-12.8-8.45-17.33-14.16v76.24h-26.54ZM1018.04,425.26c0,20.15,4.08,35.05,12.24,44.68,8.16,9.63,18.04,14.45,29.64,14.45s21.9-4.99,30.3-14.97c8.41-9.98,12.61-25.44,12.61-46.38s-4.1-34.9-12.31-44.83c-8.21-9.93-18.01-14.89-29.42-14.89s-21.31,5.28-30.01,15.85c-8.7,10.57-13.05,25.93-13.05,46.08Z"/>
    <path className="st0" d="M1239.52,433.22l26.99-2.36c1.28,10.81,4.25,19.69,8.92,26.62,4.67,6.93,11.92,12.53,21.75,16.81s20.89,6.41,33.18,6.41c10.91,0,20.55-1.62,28.9-4.87s14.57-7.69,18.65-13.35,6.12-11.82,6.12-18.51-1.97-12.71-5.9-17.77c-3.93-5.06-10.42-9.31-19.46-12.76-5.8-2.26-18.63-5.78-38.49-10.54-19.86-4.77-33.77-9.27-41.73-13.49-10.32-5.41-18.01-12.12-23.08-20.13-5.06-8.01-7.59-16.98-7.59-26.91,0-10.91,3.1-21.11,9.29-30.6,6.19-9.49,15.24-16.69,27.13-21.6,11.9-4.92,25.12-7.37,39.67-7.37,16.02,0,30.16,2.58,42.39,7.74,12.24,5.16,21.65,12.76,28.24,22.78,6.59,10.03,10.13,21.38,10.62,34.06l-27.43,2.06c-1.47-13.66-6.46-23.99-14.97-30.97-8.5-6.98-21.06-10.47-37.68-10.47s-29.91,3.17-37.82,9.51c-7.91,6.34-11.87,13.98-11.87,22.93,0,7.77,2.8,14.16,8.41,19.17,5.51,5.01,19.88,10.15,43.13,15.41,23.25,5.26,39.2,9.86,47.85,13.79,12.58,5.8,21.87,13.15,27.87,22.05,6,8.9,8.99,19.15,8.99,30.75s-3.29,22.34-9.88,32.51c-6.59,10.17-16.05,18.09-28.39,23.74-12.34,5.65-26.22,8.48-41.66,8.48-19.56,0-35.96-2.85-49.18-8.55-13.22-5.7-23.59-14.28-31.11-25.73-7.52-11.45-11.48-24.4-11.87-38.86Z"/>
    <path className="st0" d="M1505.24,478.93l3.83,23.45c-7.47,1.57-14.16,2.36-20.05,2.36-9.63,0-17.11-1.52-22.41-4.57-5.31-3.05-9.04-7.05-11.21-12.02-2.16-4.96-3.24-15.41-3.24-31.33v-90.1h-19.46v-20.64h19.46v-38.78l26.4-15.93v54.71h26.69v20.64h-26.69v91.57c0,7.57.47,12.44,1.4,14.6.93,2.16,2.46,3.88,4.57,5.16,2.11,1.28,5.14,1.92,9.07,1.92,2.95,0,6.83-.34,11.65-1.03Z"/>
    <path className="st0" d="M1521.31,424.37c0-29,8.06-50.48,24.18-64.44,13.47-11.6,29.88-17.4,49.25-17.4,21.53,0,39.13,7.05,52.79,21.16,13.66,14.11,20.5,33.6,20.5,58.47,0,20.15-3.02,36-9.07,47.56-6.05,11.55-14.84,20.52-26.4,26.91-11.55,6.39-24.16,9.58-37.82,9.58-21.92,0-39.64-7.03-53.16-21.09-13.52-14.06-20.28-34.31-20.28-60.75ZM1548.59,424.37c0,20.05,4.37,35.07,13.12,45.05,8.75,9.98,19.76,14.97,33.03,14.97s24.13-5.01,32.88-15.04c8.75-10.03,13.12-25.31,13.12-45.86,0-19.37-4.4-34.04-13.2-44.02-8.8-9.98-19.73-14.97-32.81-14.97s-24.28,4.96-33.03,14.89c-8.75,9.93-13.12,24.92-13.12,44.97Z"/>
    <path className="st0" d="M1698.85,502.67v-156.6h23.89v23.74c6.09-11.11,11.72-18.43,16.88-21.97,5.16-3.54,10.84-5.31,17.03-5.31,8.95,0,18.04,2.85,27.28,8.55l-9.14,24.63c-6.49-3.83-12.98-5.75-19.46-5.75-5.8,0-11.01,1.75-15.63,5.23-4.62,3.49-7.91,8.33-9.88,14.52-2.95,9.44-4.42,19.76-4.42,30.97v81.99h-26.54Z"/>
    <path className="st0" d="M1906.92,452.24l27.43,3.39c-4.33,16.02-12.34,28.46-24.04,37.31-11.7,8.85-26.64,13.27-44.83,13.27-22.91,0-41.07-7.05-54.49-21.16-13.42-14.11-20.13-33.89-20.13-59.35s6.78-46.79,20.35-61.34c13.57-14.55,31.16-21.82,52.79-21.82s38.04,7.13,51.32,21.38c13.27,14.25,19.91,34.31,19.91,60.16,0,1.57-.05,3.93-.15,7.08h-116.79c.98,17.2,5.85,30.38,14.6,39.52,8.75,9.14,19.66,13.71,32.74,13.71,9.73,0,18.04-2.56,24.92-7.67s12.34-13.27,16.37-24.48ZM1819.77,409.33h87.44c-1.18-13.17-4.52-23.05-10.03-29.64-8.45-10.22-19.42-15.34-32.88-15.34-12.19,0-22.44,4.08-30.75,12.24-8.31,8.16-12.9,19.07-13.79,32.74Z"/>
  </g>
  <g>
    <path className="st0" d="M604.27,256.81v-119.83h41.28c9.32,0,16.43.57,21.33,1.72,6.87,1.58,12.72,4.44,17.57,8.58,6.32,5.34,11.05,12.17,14.18,20.48,3.13,8.31,4.7,17.81,4.7,28.49,0,9.1-1.06,17.17-3.19,24.19-2.13,7.03-4.85,12.85-8.17,17.45-3.32,4.6-6.96,8.23-10.91,10.87-3.95,2.64-8.72,4.65-14.3,6.01-5.59,1.36-12,2.04-19.25,2.04h-43.24ZM620.13,242.67h25.58c7.9,0,14.1-.74,18.6-2.21,4.5-1.47,8.08-3.54,10.75-6.21,3.76-3.76,6.69-8.81,8.79-15.16,2.1-6.35,3.15-14.05,3.15-23.09,0-12.53-2.06-22.17-6.17-28.9-4.11-6.73-9.11-11.24-15-13.53-4.25-1.63-11.09-2.45-20.52-2.45h-25.18v91.55Z"/>
    <path className="st0" d="M717.8,213.41c0-16.08,4.47-27.98,13.41-35.72,7.47-6.43,16.57-9.65,27.3-9.65,11.93,0,21.69,3.91,29.26,11.73,7.57,7.82,11.36,18.62,11.36,32.41,0,11.17-1.68,19.96-5.03,26.36-3.35,6.4-8.23,11.38-14.63,14.92-6.4,3.54-13.39,5.31-20.97,5.31-12.15,0-21.97-3.9-29.47-11.69-7.49-7.79-11.24-19.02-11.24-33.68ZM732.93,213.41c0,11.12,2.42,19.44,7.27,24.97s10.95,8.3,18.31,8.3,13.38-2.78,18.23-8.34c4.85-5.56,7.27-14.03,7.27-25.42,0-10.74-2.44-18.87-7.32-24.4-4.88-5.53-10.94-8.3-18.19-8.3s-13.46,2.75-18.31,8.26-7.27,13.81-7.27,24.93Z"/>
    <path className="st0" d="M832.4,256.81l-26.57-86.81h15.2l13.81,50.11,5.15,18.64c.22-.93,1.72-6.89,4.5-17.9l13.81-50.84h15.12l13,50.35,4.33,16.59,4.99-16.76,14.88-50.19h14.3l-27.14,86.81h-15.29l-13.81-51.99-3.35-14.79-17.57,66.78h-15.37Z"/>
    <path className="st0" d="M937.28,256.81v-86.81h13.24v12.34c6.38-9.54,15.59-14.3,27.63-14.3,5.23,0,10.04.94,14.43,2.82s7.67,4.35,9.85,7.4c2.18,3.05,3.71,6.68,4.58,10.87.54,2.72.82,7.49.82,14.3v53.38h-14.71v-52.8c0-5.99-.57-10.48-1.72-13.45-1.14-2.97-3.17-5.34-6.09-7.11-2.92-1.77-6.33-2.66-10.26-2.66-6.27,0-11.68,1.99-16.23,5.97-4.55,3.98-6.83,11.53-6.83,22.64v47.41h-14.71Z"/>
    <path className="st0" d="M1030.05,256.81v-119.83h14.71v119.83h-14.71Z"/>
    <path className="st0" d="M1062.09,213.41c0-16.08,4.47-27.98,13.41-35.72,7.47-6.43,16.57-9.65,27.3-9.65,11.93,0,21.69,3.91,29.26,11.73,7.57,7.82,11.36,18.62,11.36,32.41,0,11.17-1.68,19.96-5.03,26.36-3.35,6.4-8.23,11.38-14.63,14.92-6.4,3.54-13.39,5.31-20.97,5.31-12.15,0-21.97-3.9-29.47-11.69-7.49-7.79-11.24-19.02-11.24-33.68ZM1077.22,213.41c0,11.12,2.42,19.44,7.27,24.97,4.85,5.53,10.95,8.3,18.31,8.3s13.38-2.78,18.23-8.34,7.27-14.03,7.27-25.42c0-10.74-2.44-18.87-7.32-24.4-4.88-5.53-10.94-8.3-18.19-8.3s-13.46,2.75-18.31,8.26c-4.85,5.5-7.27,13.81-7.27,24.93Z"/>
    <path className="st0" d="M1217.32,246.11c-5.45,4.63-10.69,7.9-15.74,9.81-5.04,1.91-10.45,2.86-16.23,2.86-9.54,0-16.87-2.33-21.99-6.99-5.12-4.66-7.68-10.61-7.68-17.86,0-4.25.97-8.13,2.9-11.65,1.93-3.51,4.47-6.33,7.6-8.46,3.13-2.13,6.66-3.73,10.59-4.82,2.89-.76,7.25-1.5,13.08-2.21,11.88-1.42,20.63-3.11,26.24-5.07.05-2.02.08-3.3.08-3.84,0-5.99-1.39-10.22-4.17-12.67-3.76-3.32-9.35-4.99-16.76-4.99-6.92,0-12.03,1.21-15.33,3.64-3.3,2.42-5.74,6.72-7.32,12.87l-14.39-1.96c1.31-6.16,3.46-11.13,6.46-14.92,3-3.79,7.33-6.7,13-8.75,5.67-2.04,12.23-3.07,19.7-3.07s13.43.87,18.06,2.62c4.63,1.74,8.04,3.94,10.22,6.58,2.18,2.64,3.71,5.98,4.58,10.01.49,2.51.74,7.03.74,13.57v19.62c0,13.68.31,22.33.94,25.95.63,3.62,1.87,7.1,3.72,10.42h-15.37c-1.53-3.05-2.51-6.62-2.94-10.71ZM1216.09,213.25c-5.34,2.18-13.35,4.03-24.03,5.56-6.05.87-10.33,1.85-12.83,2.94-2.51,1.09-4.44,2.68-5.8,4.78-1.36,2.1-2.04,4.43-2.04,6.99,0,3.92,1.49,7.19,4.45,9.81,2.97,2.62,7.32,3.92,13.04,3.92s10.71-1.24,15.12-3.72c4.41-2.48,7.66-5.87,9.73-10.18,1.58-3.32,2.37-8.23,2.37-14.71v-5.39Z"/>
    <path className="st0" d="M1310.09,256.81v-10.95c-5.5,8.61-13.6,12.91-24.28,12.91-6.92,0-13.28-1.91-19.09-5.72-5.8-3.81-10.3-9.14-13.49-15.98-3.19-6.84-4.78-14.7-4.78-23.58s1.44-16.53,4.33-23.58c2.89-7.06,7.22-12.47,13-16.23,5.78-3.76,12.23-5.64,19.37-5.64,5.23,0,9.89,1.1,13.98,3.31,4.09,2.21,7.41,5.08,9.97,8.62v-43h14.63v119.83h-13.65ZM1263.58,213.49c0,11.12,2.34,19.43,7.03,24.93,4.69,5.5,10.22,8.26,16.59,8.26s11.89-2.63,16.39-7.89c4.5-5.26,6.74-13.28,6.74-24.07,0-11.88-2.29-20.6-6.87-26.16-4.58-5.56-10.22-8.34-16.92-8.34s-12,2.67-16.39,8.01c-4.39,5.34-6.58,13.76-6.58,25.26Z"/>
    <path className="st0" d="M1387.91,213.41c0-16.08,4.47-27.98,13.41-35.72,7.47-6.43,16.57-9.65,27.3-9.65,11.93,0,21.69,3.91,29.26,11.73,7.57,7.82,11.36,18.62,11.36,32.41,0,11.17-1.68,19.96-5.03,26.36-3.35,6.4-8.23,11.38-14.63,14.92-6.4,3.54-13.39,5.31-20.97,5.31-12.15,0-21.97-3.9-29.47-11.69-7.49-7.79-11.24-19.02-11.24-33.68ZM1403.03,213.41c0,11.12,2.43,19.44,7.27,24.97s10.95,8.3,18.31,8.3,13.38-2.78,18.23-8.34c4.85-5.56,7.27-14.03,7.27-25.42,0-10.74-2.44-18.87-7.32-24.4-4.88-5.53-10.94-8.3-18.19-8.3s-13.46,2.75-18.31,8.26-7.27,13.81-7.27,24.93Z"/>
    <path className="st0" d="M1486.49,256.81v-86.81h13.24v12.34c6.38-9.54,15.59-14.3,27.63-14.3,5.23,0,10.04.94,14.43,2.82s7.67,4.35,9.85,7.4c2.18,3.05,3.71,6.68,4.58,10.87.55,2.72.82,7.49.82,14.3v53.38h-14.71v-52.8c0-5.99-.57-10.48-1.72-13.45-1.14-2.97-3.17-5.34-6.09-7.11-2.92-1.77-6.33-2.66-10.26-2.66-6.27,0-11.68,1.99-16.23,5.97-4.55,3.98-6.83,11.53-6.83,22.64v47.41h-14.71Z"/>
    <path className="st0" d="M1658.22,243.65l2.13,13c-4.14.87-7.85,1.31-11.12,1.31-5.34,0-9.48-.84-12.42-2.53-2.94-1.69-5.01-3.91-6.21-6.66-1.2-2.75-1.8-8.54-1.8-17.37v-49.94h-10.79v-11.44h10.79v-21.5l14.63-8.83v30.33h14.79v11.44h-14.79v50.76c0,4.2.26,6.89.78,8.09.52,1.2,1.36,2.15,2.53,2.86s2.85,1.06,5.03,1.06c1.63,0,3.79-.19,6.46-.57Z"/>
    <path className="st0" d="M1672.61,256.81v-119.83h14.71v43c6.87-7.96,15.53-11.93,25.99-11.93,6.43,0,12.02,1.27,16.76,3.8,4.74,2.53,8.13,6.04,10.18,10.5,2.04,4.47,3.07,10.95,3.07,19.45v55.01h-14.71v-55.01c0-7.36-1.59-12.71-4.78-16.06s-7.7-5.03-13.53-5.03c-4.36,0-8.46,1.13-12.3,3.39-3.84,2.26-6.58,5.33-8.21,9.2-1.63,3.87-2.45,9.21-2.45,16.02v47.49h-14.71Z"/>
    <path className="st0" d="M1825.14,228.86l15.2,1.88c-2.4,8.88-6.84,15.78-13.32,20.68s-14.77,7.36-24.85,7.36c-12.7,0-22.76-3.91-30.2-11.73-7.44-7.82-11.16-18.79-11.16-32.9s3.76-25.94,11.28-34c7.52-8.06,17.27-12.1,29.26-12.1s21.09,3.95,28.45,11.85,11.03,19.02,11.03,33.35c0,.87-.03,2.18-.08,3.92h-64.74c.55,9.54,3.24,16.84,8.09,21.91,4.85,5.07,10.9,7.6,18.15,7.6,5.39,0,10-1.42,13.81-4.25,3.81-2.83,6.84-7.36,9.07-13.57ZM1776.83,205.07h48.47c-.65-7.3-2.51-12.78-5.56-16.43-4.69-5.67-10.76-8.5-18.23-8.5-6.76,0-12.44,2.26-17.04,6.78-4.6,4.52-7.15,10.57-7.64,18.15Z"/>
  </g>
</svg>