<?xml version="1.0" encoding="UTF-8"?>
<svg id="_Ñëîé_1" data-name="Ñëîé_1" xmlns="http://www.w3.org/2000/svg" version="1.1" viewBox="0 0 2061.1 645.08">
  <!-- Generator: Adobe Illustrator 29.1.0, SVG Export Plug-In . SVG Version: 2.1.0 Build 142)  -->
  <defs>
    <style>
      .st0 {
        fill: #00d3ff;
      }

      .st1 {
        fill: #f1314b;
      }

      .st2 {
        fill: #00f076;
      }

      .st3 {
        fill: #fff;
      }

      .st4 {
        fill: #ffc400;
      }
    </style>
  </defs>
  <rect width="2061.1" height="645.08" rx="99.09" ry="99.09"/>
  <g>
    <path className="st2" d="M372.66,312.53l-111.59-93.58-111.82-93.78v-9.48c0-15.76,16.92-25.73,30.72-18.09l178.69,99.04,83.57,46.33-69.56,69.56Z"/>
    <path className="st1" d="M149.24,509.73v-9.46l111.82-93.78,111.14-93.2,69.47,69.47-83.02,46.02-178.69,99.06c-13.8,7.64-30.72-2.34-30.72-18.11Z"/>
    <polygon className="st3" points="149.24 500.27 149.24 125.17 261.06 218.95 372.66 312.53 372.89 312.71 372.2 313.29 261.06 406.49 149.24 500.27"/>
    <polygon className="st0" points="149.24 500.27 149.24 125.17 261.06 218.95 372.66 312.53 372.89 312.71 372.2 313.29 261.06 406.49 149.24 500.27"/>
    <path className="st4" d="M441.67,382.76l-69.47-69.47.68-.58-.23-.18,69.56-69.56,93.18,51.65c14.21,7.88,14.21,28.31,0,36.18l-93.73,51.96Z"/>
    <polygon className="st3" points="372.2 313.29 372.05 313.14 372.66 312.53 372.89 312.71 372.2 313.29"/>
  </g>
  <g>
    <g>
      <path className="st3" d="M692.39,423.3v-27.98h72.26v66.15c-7.02,6.8-17.2,12.78-30.52,17.95-13.33,5.17-26.82,7.76-40.49,7.76-17.37,0-32.51-3.64-45.42-10.93-12.91-7.29-22.62-17.71-29.11-31.26-6.49-13.55-9.74-28.3-9.74-44.23,0-17.29,3.62-32.66,10.87-46.1,7.25-13.44,17.86-23.75,31.83-30.92,10.65-5.51,23.9-8.27,39.76-8.27,20.61,0,36.72,4.32,48.31,12.97,11.59,8.65,19.05,20.6,22.37,35.85l-33.3,6.23c-2.34-8.16-6.74-14.59-13.2-19.31-6.46-4.72-14.52-7.08-24.18-7.08-14.65,0-26.3,4.64-34.94,13.93-8.65,9.29-12.97,23.07-12.97,41.34,0,19.71,4.38,34.49,13.14,44.34,8.76,9.85,20.24,14.78,34.43,14.78,7.02,0,14.06-1.38,21.12-4.13,7.06-2.76,13.12-6.1,18.18-10.02v-21.07h-38.4Z"/>
      <path className="st3" d="M787.98,422.5c0-10.57,2.61-20.8,7.82-30.69,5.21-9.89,12.59-17.44,22.14-22.65,9.55-5.21,20.22-7.82,32-7.82,18.2,0,33.11,5.91,44.74,17.73,11.63,11.82,17.44,26.75,17.44,44.8s-5.87,33.28-17.61,45.25-26.52,17.95-44.34,17.95c-11.02,0-21.54-2.49-31.54-7.48-10.01-4.98-17.61-12.29-22.82-21.92-5.21-9.63-7.82-21.35-7.82-35.17ZM820.6,424.2c0,11.93,2.83,21.07,8.49,27.41,5.66,6.34,12.65,9.51,20.95,9.51s15.27-3.17,20.9-9.51c5.63-6.34,8.44-15.56,8.44-27.64s-2.81-20.84-8.44-27.18c-5.63-6.34-12.59-9.51-20.9-9.51s-15.29,3.17-20.95,9.51c-5.66,6.34-8.49,15.48-8.49,27.41Z"/>
      <path className="st3" d="M929.68,422.5c0-10.57,2.61-20.8,7.82-30.69s12.59-17.44,22.14-22.65,20.22-7.82,32-7.82c18.2,0,33.11,5.91,44.74,17.73,11.63,11.82,17.44,26.75,17.44,44.8s-5.87,33.28-17.61,45.25-26.52,17.95-44.34,17.95c-11.02,0-21.54-2.49-31.54-7.48-10.01-4.98-17.61-12.29-22.82-21.92-5.21-9.63-7.82-21.35-7.82-35.17ZM962.3,424.2c0,11.93,2.83,21.07,8.49,27.41,5.66,6.34,12.65,9.51,20.95,9.51s15.27-3.17,20.9-9.51c5.63-6.34,8.44-15.56,8.44-27.64s-2.81-20.84-8.44-27.18c-5.63-6.34-12.59-9.51-20.9-9.51s-15.29,3.17-20.95,9.51c-5.66,6.34-8.49,15.48-8.49,27.41Z"/>
      <path className="st3" d="M1075.79,492.27l36.36,4.42c.6,4.23,2,7.14,4.19,8.72,3.02,2.27,7.78,3.4,14.27,3.4,8.31,0,14.54-1.25,18.69-3.74,2.79-1.66,4.91-4.34,6.34-8.04.98-2.64,1.47-7.51,1.47-14.61v-17.56c-9.51,12.99-21.52,19.48-36.02,19.48-16.16,0-28.96-6.83-38.4-20.5-7.4-10.8-11.1-24.24-11.1-40.32,0-20.16,4.85-35.57,14.55-46.21,9.7-10.65,21.77-15.97,36.19-15.97s27.15,6.53,36.81,19.59v-16.88h29.79v107.94c0,14.2-1.17,24.81-3.51,31.83-2.34,7.02-5.63,12.53-9.85,16.54s-9.87,7.14-16.93,9.4c-7.06,2.27-15.99,3.4-26.79,3.4-20.39,0-34.85-3.49-43.38-10.48-8.53-6.98-12.8-15.84-12.8-26.56,0-1.06.04-2.34.11-3.85ZM1104.22,421.71c0,12.76,2.47,22.11,7.42,28.03s11.04,8.89,18.29,8.89c7.78,0,14.35-3.04,19.71-9.12,5.36-6.08,8.04-15.08,8.04-27.01s-2.57-21.71-7.7-27.75c-5.13-6.04-11.63-9.06-19.48-9.06s-13.91,2.96-18.86,8.89-7.42,14.97-7.42,27.13Z"/>
      <path className="st3" d="M1220.43,484.35v-166.05h31.83v166.05h-31.83Z"/>
      <path className="st3" d="M1354.53,446.06l31.71,5.32c-4.08,11.63-10.51,20.48-19.31,26.56-8.8,6.08-19.8,9.12-33.02,9.12-20.92,0-36.4-6.83-46.44-20.5-7.93-10.95-11.89-24.77-11.89-41.45,0-19.93,5.21-35.55,15.63-46.84,10.42-11.29,23.6-16.93,39.53-16.93,17.9,0,32.02,5.91,42.36,17.73,10.34,11.82,15.29,29.92,14.84,54.31h-79.74c.23,9.44,2.79,16.78,7.7,22.03,4.91,5.25,11.02,7.87,18.35,7.87,4.98,0,9.17-1.36,12.57-4.08,3.4-2.72,5.97-7.1,7.7-13.14ZM1356.35,413.89c-.23-9.21-2.61-16.22-7.14-21.01s-10.04-7.19-16.54-7.19c-6.95,0-12.69,2.53-17.22,7.59-4.53,5.06-6.76,11.93-6.68,20.61h47.57Z"/>
      <path className="st3" d="M1478.56,484.35v-166.05h53.8c20.39,0,33.68.83,39.87,2.49,9.51,2.49,17.48,7.91,23.9,16.25,6.42,8.34,9.63,19.12,9.63,32.34,0,10.19-1.85,18.76-5.55,25.71s-8.4,12.4-14.1,16.37c-5.7,3.96-11.5,6.59-17.39,7.87-8,1.59-19.59,2.38-34.77,2.38h-21.86v62.64h-33.53ZM1512.09,346.39v47.12h18.35c13.21,0,22.05-.87,26.5-2.61,4.46-1.74,7.95-4.46,10.48-8.16s3.79-8,3.79-12.91c0-6.04-1.77-11.02-5.32-14.95-3.55-3.93-8.04-6.38-13.48-7.36-4-.76-12.04-1.13-24.13-1.13h-16.2Z"/>
      <path className="st3" d="M1633.05,484.35v-166.05h31.83v166.05h-31.83Z"/>
      <path className="st3" d="M1721.29,400.76l-28.88-5.21c3.25-11.63,8.83-20.24,16.76-25.82,7.93-5.59,19.71-8.38,35.34-8.38,14.2,0,24.77,1.68,31.71,5.04s11.84,7.63,14.67,12.8c2.83,5.17,4.25,14.67,4.25,28.49l-.34,37.15c0,10.57.51,18.37,1.53,23.39,1.02,5.02,2.93,10.4,5.72,16.14h-31.49c-.83-2.11-1.85-5.25-3.06-9.4-.53-1.89-.91-3.13-1.13-3.74-5.44,5.29-11.25,9.25-17.44,11.89-6.19,2.64-12.8,3.96-19.82,3.96-12.38,0-22.14-3.36-29.28-10.08s-10.7-15.22-10.7-25.48c0-6.8,1.62-12.86,4.87-18.18,3.25-5.32,7.8-9.4,13.65-12.23,5.85-2.83,14.29-5.3,25.31-7.42,14.88-2.79,25.18-5.4,30.92-7.82v-3.17c0-6.12-1.51-10.48-4.53-13.08s-8.72-3.91-17.1-3.91c-5.66,0-10.08,1.11-13.25,3.34s-5.74,6.14-7.7,11.72ZM1763.87,426.58c-4.08,1.36-10.53,2.98-19.37,4.87-8.83,1.89-14.61,3.74-17.33,5.55-4.15,2.94-6.23,6.68-6.23,11.21s1.66,8.31,4.98,11.55c3.32,3.25,7.55,4.87,12.69,4.87,5.74,0,11.21-1.89,16.42-5.66,3.85-2.87,6.38-6.38,7.59-10.53.83-2.72,1.25-7.89,1.25-15.52v-6.34Z"/>
      <path className="st3" d="M1811.45,364.06h33.87l28.77,85.4,28.09-85.4h32.96l-42.47,115.76-7.59,20.95c-2.79,7.02-5.46,12.38-7.99,16.08s-5.44,6.7-8.72,9c-3.28,2.3-7.32,4.1-12.12,5.38-4.79,1.28-10.21,1.93-16.25,1.93s-12.12-.64-18.01-1.93l-2.83-24.92c4.98.98,9.48,1.47,13.48,1.47,7.4,0,12.87-2.17,16.42-6.51,3.55-4.34,6.27-9.87,8.16-16.59l-45.76-120.63Z"/>
    </g>
    <g>
      <path className="st3" d="M657.13,212.75v-13.71l40.32-.08v43.17c-6.18,6.02-12.57,10.55-19.17,13.59-6.6,3.04-13.39,4.56-20.36,4.56-9.3,0-17.59-2.32-24.88-6.98-7.29-4.65-13.06-11.44-17.31-20.37s-6.38-19.66-6.38-32.18,2.14-23.73,6.42-33.13,9.88-16.35,16.79-20.81c6.92-4.47,15.1-6.7,24.56-6.7,6.97,0,13.07,1.29,18.3,3.88,5.23,2.59,9.53,6.26,12.91,11.01,3.38,4.75,5.92,11.28,7.61,19.57l-11.33,3.8c-1.53-6.55-3.46-11.45-5.78-14.7s-5.39-5.8-9.19-7.64c-3.8-1.85-8.08-2.77-12.83-2.77-6.92,0-12.87,1.68-17.86,5.04-4.99,3.35-9,8.58-12.04,15.66-3.04,7.08-4.56,15.73-4.56,25.92,0,15.54,3.25,27.19,9.74,34.92,6.5,7.75,14.95,11.62,25.35,11.62,4.96,0,10.05-1.19,15.25-3.56,5.2-2.38,9.33-5.2,12.4-8.48v-21.63h-27.96Z"/>
      <path className="st3" d="M716.07,258.3v-116.14h68.84v13.71h-56.25v35.49h52.68v13.71h-52.68v39.53h58.46v13.71h-71.06Z"/>
      <path className="st3" d="M828.96,258.3v-102.43h-31.37v-13.71h75.5v13.71h-31.53v102.43h-12.6Z"/>
      <path className="st3" d="M922.92,258.3v-116.14h12.6v116.14h-12.6Z"/>
      <path className="st3" d="M981.94,258.3v-102.43h-31.37v-13.71h75.5v13.71h-31.53v102.43h-12.6Z"/>
      <path className="st3" d="M1069.95,201.73c0-19.81,4.36-35.03,13.07-45.67,8.71-10.64,19.57-15.96,32.56-15.96,8.4,0,16.06,2.38,22.97,7.13,6.92,4.75,12.4,11.66,16.44,20.72s6.06,19.84,6.06,32.36c0,17.22-3.91,31.24-11.72,42.07-8.61,11.94-19.88,17.9-33.83,17.9s-25.35-6.13-33.91-18.38c-7.76-11.09-11.65-24.48-11.65-40.16ZM1082.94,201.93c0,14.33,3.16,25.44,9.47,33.34,6.31,7.91,13.98,11.86,23.01,11.86s16.99-3.99,23.25-11.98c6.26-7.97,9.39-19.71,9.39-35.2,0-9.99-1.61-18.92-4.83-26.8-2.48-6.03-6.22-10.85-11.21-14.47-4.99-3.62-10.44-5.43-16.36-5.43-9.51,0-17.34,3.97-23.49,11.9-6.15,7.93-9.23,20.19-9.23,36.78Z"/>
      <path className="st3" d="M1176.66,258.3v-116.14h12.91l50.07,91.36v-91.36h12.04v116.14h-12.91l-49.99-91.38v91.38h-12.12Z"/>
    </g>
  </g>
</svg>