<?xml version="1.0" encoding="UTF-8"?>
<svg xmlns="http://www.w3.org/2000/svg" width="512" height="512" viewBox="0 0 128 128" fill=" var(--primary) "><g><path d="M64,0a64,64,0,1,0,64,64A64.072,64.072,0,0,0,64,0Zm53.236,92.718-3.9-2.252a55.607,55.607,0,0,0,6.619-24.713h4.5A60.084,60.084,0,0,1,117.236,92.715ZM62.25,119.953v4.5a60.1,60.1,0,0,1-26.965-7.218l2.252-3.9A55.623,55.623,0,0,0,62.25,119.953Zm3.5,0a55.623,55.623,0,0,0,24.713-6.618l2.251,3.9a60.092,60.092,0,0,1-26.964,7.218ZM64,116.5A52.5,52.5,0,1,1,116.5,64,52.56,52.56,0,0,1,64,116.5ZM3.544,65.75h4.5a55.629,55.629,0,0,0,6.62,24.714l-3.9,2.251A60.1,60.1,0,0,1,3.544,65.75Zm7.217-30.467,3.9,2.252A55.6,55.6,0,0,0,8.044,62.25h-4.5A60.091,60.091,0,0,1,10.761,35.283ZM65.75,8.041v-4.5A60.105,60.105,0,0,1,92.717,10.76l-2.252,3.9A55.629,55.629,0,0,0,65.75,8.041Zm-3.5,0A55.629,55.629,0,0,0,37.535,14.66l-2.252-3.9A60.105,60.105,0,0,1,62.25,3.541ZM119.956,62.25a55.631,55.631,0,0,0-6.617-24.715l3.9-2.251a60.087,60.087,0,0,1,7.217,26.966Zm-4.478-29.992-3.9,2.252A56.43,56.43,0,0,0,93.491,16.42l2.251-3.9A60.962,60.962,0,0,1,115.478,32.258ZM32.258,12.521l2.251,3.9A56.43,56.43,0,0,0,16.421,34.51l-3.9-2.252A60.975,60.975,0,0,1,32.258,12.521ZM12.525,95.74l3.9-2.251a56.418,56.418,0,0,0,18.088,18.086l-2.251,3.9A60.966,60.966,0,0,1,12.525,95.74Zm83.214,19.734-2.251-3.9a56.418,56.418,0,0,0,18.088-18.086l3.9,2.251A60.966,60.966,0,0,1,95.739,115.474Z"/><path d="M64,36.688A27.313,27.313,0,1,0,91.312,64,27.344,27.344,0,0,0,64,36.688Zm0,51.125A23.813,23.813,0,1,1,87.812,64,23.841,23.841,0,0,1,64,87.813Z"/><path d="M75.928,64l6.385-8.725a1.747,1.747,0,0,0,.1-1.908,1.728,1.728,0,0,0-1.7-.864L69.963,53.672,65.6,43.778a1.75,1.75,0,0,0-3.2,0l-4.362,9.894L47.287,52.5a1.749,1.749,0,0,0-1.6,2.773L52.073,64l-6.387,8.724a1.749,1.749,0,0,0,1.6,2.773l10.75-1.169L62.4,84.222a1.75,1.75,0,0,0,3.2,0l4.361-9.894L80.712,75.5a1.749,1.749,0,0,0,1.6-2.772Zm-6.86,6.711a1.749,1.749,0,0,0-1.791,1.033L64,79.178l-3.277-7.434a1.749,1.749,0,0,0-1.6-1.044,1.513,1.513,0,0,0-.19.011l-8.078.878,4.8-6.555a1.753,1.753,0,0,0,0-2.068l-4.8-6.555,8.078.878a1.736,1.736,0,0,0,1.79-1.033L64,48.822l3.277,7.434a1.741,1.741,0,0,0,1.791,1.033l8.077-.878-4.8,6.556a1.746,1.746,0,0,0,0,2.066l4.8,6.556Z"/><path d="M68.523,95.1a1.75,1.75,0,0,0-1.75,1.75v4.779H62.035l1.613-4.145a1.75,1.75,0,0,0-3.262-1.269l-2.54,6.529a1.75,1.75,0,0,0,1.631,2.385h7.3V109.9a1.75,1.75,0,0,0,3.5,0V96.846A1.749,1.749,0,0,0,68.523,95.1Z"/><path d="M59.477,28.56a1.75,1.75,0,1,0,0,3.5h9.046a1.75,1.75,0,0,0,0-3.5H65.75V17.25a1.75,1.75,0,0,0-2.756-1.432L58.47,19a1.75,1.75,0,0,0,2.013,2.863l1.767-1.242V28.56Z"/><path d="M93.166,52.31h9.047a1.75,1.75,0,0,0,0-3.5H95.441l7.745-5.187a1.748,1.748,0,0,0,.777-1.454V37.5a1.749,1.749,0,0,0-1.75-1.75H93.166a1.749,1.749,0,0,0-1.75,1.75v3.526a1.75,1.75,0,0,0,3.5,0V39.251h5.547v1.983l-8.271,5.54a1.753,1.753,0,0,0-.776,1.454V50.56A1.749,1.749,0,0,0,93.166,52.31Z"/><path d="M102.4,93.467v-4.11a1.748,1.748,0,0,0-.924-1.542l-1.639-.877,1.639-.878a1.748,1.748,0,0,0,.924-1.542v-4.11a1.749,1.749,0,0,0-1.75-1.75H91.6a1.749,1.749,0,0,0-1.75,1.75v3.1a1.75,1.75,0,0,0,3.5,0V82.158H98.9v1.311L95.3,85.4a1.749,1.749,0,0,0,0,3.085l3.6,1.926v1.311H93.352V90.363a1.75,1.75,0,0,0-3.5,0v3.1a1.749,1.749,0,0,0,1.75,1.75h9.046A1.749,1.749,0,0,0,102.4,93.467Z"/><path d="M37.21,82.158a1.75,1.75,0,0,0,0-3.5H28.163a1.75,1.75,0,0,0-1.75,1.75v6.53a1.751,1.751,0,0,0,1.75,1.75h5.782a1.515,1.515,0,1,1,0,3.029H28.163a1.75,1.75,0,1,0,0,3.5h5.782a5.015,5.015,0,1,0,0-10.029H29.913v-3.03Z"/><path d="M37.047,50.56V44.03a1.751,1.751,0,0,0-1.75-1.75H28V39.251h7.3a1.75,1.75,0,0,0,0-3.5H26.25A1.75,1.75,0,0,0,24.5,37.5V50.56a1.75,1.75,0,0,0,1.75,1.75H35.3A1.75,1.75,0,0,0,37.047,50.56Zm-3.5-1.75H28V45.78h5.547Z"/></g></svg>
