<svg width="68" height="68" viewBox="0 0 68 68" fill="none" xmlns="http://www.w3.org/2000/svg">
<path d="M64.8125 10.625V20.1875H3.1875V10.625C3.1875 10.0614 3.41138 9.52091 3.8099 9.1224C4.20841 8.72388 4.74891 8.5 5.3125 8.5H62.6875C63.2511 8.5 63.7916 8.72388 64.1901 9.1224C64.5886 9.52091 64.8125 10.0614 64.8125 10.625Z" fill="#FC6067"/>
<path d="M64.8125 20.1875V62.6875C64.8125 63.2511 64.5886 63.7916 64.1901 64.1901C63.7916 64.5886 63.2511 64.8125 62.6875 64.8125H5.3125C4.74891 64.8125 4.20841 64.5886 3.8099 64.1901C3.41138 63.7916 3.1875 63.2511 3.1875 62.6875V20.1875H64.8125Z" fill="#E7EAEF"/>
<path d="M17 5.3125C17 4.13889 16.0486 3.1875 14.875 3.1875C13.7014 3.1875 12.75 4.13889 12.75 5.3125V11.6875C12.75 12.8611 13.7014 13.8125 14.875 13.8125C16.0486 13.8125 17 12.8611 17 11.6875V5.3125Z" fill="#E7EAEF"/>
<path d="M29.75 5.3125C29.75 4.13889 28.7986 3.1875 27.625 3.1875C26.4514 3.1875 25.5 4.13889 25.5 5.3125V11.6875C25.5 12.8611 26.4514 13.8125 27.625 13.8125C28.7986 13.8125 29.75 12.8611 29.75 11.6875V5.3125Z" fill="#E7EAEF"/>
<path d="M42.5 5.3125C42.5 4.13889 41.5486 3.1875 40.375 3.1875C39.2014 3.1875 38.25 4.13889 38.25 5.3125V11.6875C38.25 12.8611 39.2014 13.8125 40.375 13.8125C41.5486 13.8125 42.5 12.8611 42.5 11.6875V5.3125Z" fill="#E7EAEF"/>
<path d="M55.25 5.3125C55.25 4.13889 54.2986 3.1875 53.125 3.1875C51.9514 3.1875 51 4.13889 51 5.3125V11.6875C51 12.8611 51.9514 13.8125 53.125 13.8125C54.2986 13.8125 55.25 12.8611 55.25 11.6875V5.3125Z" fill="#E7EAEF"/>
<path d="M3.1875 23.375H61.625V62.6875C61.6203 63.4738 61.3252 64.2306 60.7962 64.8125H62.6875C63.2511 64.8125 63.7916 64.5886 64.1901 64.1901C64.5886 63.7916 64.8125 63.2511 64.8125 62.6875V20.1875H3.1875V23.375Z" fill="#D8DBE0"/>
<path d="M61.6246 20.1875H64.8121V10.625C64.8121 10.0614 64.5883 9.52091 64.1898 9.1224C63.7912 8.72388 63.2507 8.5 62.6871 8.5H60.7959C61.3248 9.08186 61.62 9.83869 61.6246 10.625V20.1875Z" fill="#FB4B5B"/>
<path d="M52.0625 44.625V49.0981C51.7298 48.9443 51.3665 48.868 51 48.875C48.875 48.875 48.875 51 46.75 51C44.625 51 44.625 48.875 42.5 48.875C40.375 48.875 40.375 51 38.25 51C36.125 51 36.125 48.875 34 48.875C31.875 48.875 31.875 51 29.75 51C27.625 51 27.625 48.875 25.5 48.875C23.375 48.875 23.375 51 21.25 51C20.8391 50.9921 20.4351 50.8927 20.0674 50.7089C19.6998 50.5251 19.3779 50.2615 19.125 49.9375C18.8721 49.6135 18.5502 49.3499 18.1826 49.1661C17.8149 48.9823 17.4109 48.8829 17 48.875C16.6335 48.868 16.2702 48.9443 15.9375 49.0981V44.625C15.9375 44.0614 16.1614 43.5209 16.5599 43.1224C16.9584 42.7239 17.4989 42.5 18.0625 42.5H49.9375C50.5011 42.5 51.0416 42.7239 51.4401 43.1224C51.8386 43.5209 52.0625 44.0614 52.0625 44.625Z" fill="#FC6067"/>
<path d="M52.0625 49.0986V58.4379H15.9375V49.0986C16.2702 48.9448 16.6335 48.8685 17 48.8754C17.4109 48.8833 17.8149 48.9828 18.1826 49.1666C18.5502 49.3504 18.8721 49.6139 19.125 49.9379C19.3779 50.262 19.6998 50.5255 20.0674 50.7093C20.4351 50.8931 20.8391 50.9926 21.25 51.0004C23.375 51.0004 23.375 48.8754 25.5 48.8754C27.625 48.8754 27.625 51.0004 29.75 51.0004C31.875 51.0004 31.875 48.8754 34 48.8754C36.125 48.8754 36.125 51.0004 38.25 51.0004C40.375 51.0004 40.375 48.8754 42.5 48.8754C44.625 48.8754 44.625 51.0004 46.75 51.0004C48.875 51.0004 48.875 48.8754 51 48.8754C51.3665 48.8685 51.7298 48.9448 52.0625 49.0986Z" fill="#FCB860"/>
<path d="M52.0625 49.0986C51.7298 48.9448 51.3665 48.8685 51 48.8754C50.5891 48.8833 50.1851 48.9828 49.8174 49.1666C49.4498 49.3504 49.1279 49.6139 48.875 49.9379V58.4379H52.0625V49.0986Z" fill="#FCAA52"/>
<path d="M50.9996 48.875C51.3661 48.868 51.7294 48.9443 52.0621 49.0981V44.625C52.0621 44.0614 51.8383 43.5209 51.4398 43.1224C51.0412 42.7239 50.5007 42.5 49.9371 42.5H48.0459C48.5748 43.0819 48.87 43.8387 48.8746 44.625V49.9375C49.1275 49.6135 49.4495 49.3499 49.8171 49.1661C50.1847 48.9823 50.5887 48.8829 50.9996 48.875Z" fill="#FB4B5B"/>
<path d="M31.875 36.125H36.125V42.5H31.875V36.125Z" fill="#D8DBE0"/>
<path d="M36.125 30.8125C36.125 31.3761 35.9011 31.9166 35.5026 32.3151C35.1041 32.7136 34.5636 32.9375 34 32.9375C33.4364 32.9375 32.8959 32.7136 32.4974 32.3151C32.0989 31.9166 31.875 31.3761 31.875 30.8125C31.875 29.6437 34 26.5625 34 26.5625C34 26.5625 36.125 29.6437 36.125 30.8125Z" fill="#FCB860"/>
<path d="M21.25 36.125H25.5V42.5H21.25V36.125Z" fill="#D8DBE0"/>
<path d="M25.5 30.8125C25.5 31.3761 25.2761 31.9166 24.8776 32.3151C24.4791 32.7136 23.9386 32.9375 23.375 32.9375C22.8114 32.9375 22.2709 32.7136 21.8724 32.3151C21.4739 31.9166 21.25 31.3761 21.25 30.8125C21.25 29.6437 23.375 26.5625 23.375 26.5625C23.375 26.5625 25.5 29.6437 25.5 30.8125Z" fill="#FCB860"/>
<path d="M42.5 36.125H46.75V42.5H42.5V36.125Z" fill="#D8DBE0"/>
<path d="M46.75 30.8125C46.75 31.3761 46.5261 31.9166 46.1276 32.3151C45.7291 32.7136 45.1886 32.9375 44.625 32.9375C44.0614 32.9375 43.5209 32.7136 43.1224 32.3151C42.7239 31.9166 42.5 31.3761 42.5 30.8125C42.5 29.6437 44.625 26.5625 44.625 26.5625C44.625 26.5625 46.75 29.6437 46.75 30.8125Z" fill="#FCB860"/>
<path d="M34 33.9999C34.8454 33.9999 35.6561 33.6641 36.2539 33.0663C36.8517 32.4686 37.1875 31.6578 37.1875 30.8124C37.1875 29.4524 35.5725 26.9662 34.8712 25.9568C34.7733 25.8165 34.643 25.702 34.4913 25.6229C34.3396 25.5437 34.1711 25.5024 34 25.5024C33.8289 25.5024 33.6604 25.5437 33.5087 25.6229C33.357 25.702 33.2267 25.8165 33.1288 25.9568C32.4275 26.9662 30.8125 29.4524 30.8125 30.8124C30.8125 31.6578 31.1483 32.4686 31.7461 33.0663C32.3439 33.6641 33.1546 33.9999 34 33.9999ZM34 28.5281C34.4734 29.2282 34.832 29.9993 35.0625 30.8124C35.0625 31.0942 34.9506 31.3645 34.7513 31.5637C34.552 31.763 34.2818 31.8749 34 31.8749C33.7182 31.8749 33.448 31.763 33.2487 31.5637C33.0494 31.3645 32.9375 31.0942 32.9375 30.8124C33.17 30.0001 33.5285 29.2292 34 28.5281Z" fill="black"/>
<path d="M23.375 33.9999C24.2204 33.9999 25.0311 33.6641 25.6289 33.0663C26.2267 32.4686 26.5625 31.6578 26.5625 30.8124C26.5625 29.4524 24.9475 26.9662 24.2462 25.9568C24.1483 25.8165 24.018 25.702 23.8663 25.6229C23.7146 25.5437 23.5461 25.5024 23.375 25.5024C23.2039 25.5024 23.0354 25.5437 22.8837 25.6229C22.732 25.702 22.6017 25.8165 22.5038 25.9568C21.8025 26.9662 20.1875 29.4524 20.1875 30.8124C20.1875 31.6578 20.5233 32.4686 21.1211 33.0663C21.7189 33.6641 22.5296 33.9999 23.375 33.9999ZM23.375 28.5281C23.8484 29.2282 24.207 29.9993 24.4375 30.8124C24.4375 31.0942 24.3256 31.3645 24.1263 31.5637C23.927 31.763 23.6568 31.8749 23.375 31.8749C23.0932 31.8749 22.823 31.763 22.6237 31.5637C22.4244 31.3645 22.3125 31.0942 22.3125 30.8124C22.545 30.0001 22.9035 29.2292 23.375 28.5281Z" fill="black"/>
<path d="M20.1875 41.4375H18.0625C17.2171 41.4375 16.4064 41.7733 15.8086 42.3711C15.2108 42.9689 14.875 43.7796 14.875 44.625V58.4375C14.875 58.7193 14.9869 58.9895 15.1862 59.1888C15.3855 59.3881 15.6557 59.5 15.9375 59.5H52.0625C52.3443 59.5 52.6145 59.3881 52.8138 59.1888C53.0131 58.9895 53.125 58.7193 53.125 58.4375V44.625C53.125 43.7796 52.7892 42.9689 52.1914 42.3711C51.5936 41.7733 50.7829 41.4375 49.9375 41.4375H47.8125V36.125C47.8125 35.8432 47.7006 35.573 47.5013 35.3737C47.302 35.1744 47.0318 35.0625 46.75 35.0625H42.5C42.2182 35.0625 41.948 35.1744 41.7487 35.3737C41.5494 35.573 41.4375 35.8432 41.4375 36.125V41.4375H37.1875V36.125C37.1875 35.8432 37.0756 35.573 36.8763 35.3737C36.677 35.1744 36.4068 35.0625 36.125 35.0625H31.875C31.5932 35.0625 31.323 35.1744 31.1237 35.3737C30.9244 35.573 30.8125 35.8432 30.8125 36.125V41.4375H26.5625V36.125C26.5625 35.8432 26.4506 35.573 26.2513 35.3737C26.052 35.1744 25.7818 35.0625 25.5 35.0625H21.25C20.9682 35.0625 20.698 35.1744 20.4987 35.3737C20.2994 35.573 20.1875 35.8432 20.1875 36.125V41.4375ZM51 57.375H17V49.9375C17.595 49.9375 17.85 50.1712 18.3706 50.6919C18.7183 51.1203 19.1572 51.4658 19.6553 51.7031C20.1534 51.9403 20.6982 52.0635 21.25 52.0635C21.8018 52.0635 22.3466 51.9403 22.8447 51.7031C23.3428 51.4658 23.7817 51.1203 24.1294 50.6919C24.65 50.1712 24.905 49.9375 25.5 49.9375C26.095 49.9375 26.35 50.1712 26.8706 50.6919C27.2183 51.1203 27.6572 51.4658 28.1553 51.7031C28.6534 51.9403 29.1982 52.0635 29.75 52.0635C30.3018 52.0635 30.8466 51.9403 31.3447 51.7031C31.8428 51.4658 32.2817 51.1203 32.6294 50.6919C33.15 50.1712 33.405 49.9375 34 49.9375C34.595 49.9375 34.85 50.1712 35.3706 50.6919C35.7183 51.1203 36.1572 51.4658 36.6553 51.7031C37.1534 51.9403 37.6982 52.0635 38.25 52.0635C38.8018 52.0635 39.3466 51.9403 39.8447 51.7031C40.3428 51.4658 40.7817 51.1203 41.1294 50.6919C41.65 50.1712 41.905 49.9375 42.5 49.9375C43.095 49.9375 43.35 50.1712 43.8706 50.6919C44.2183 51.1203 44.6572 51.4658 45.1553 51.7031C45.6534 51.9403 46.1982 52.0635 46.75 52.0635C47.3018 52.0635 47.8466 51.9403 48.3447 51.7031C48.8428 51.4658 49.2817 51.1203 49.6294 50.6919C50.15 50.1712 50.405 49.9375 51 49.9375V57.375ZM51 44.625V47.8125C50.4497 47.8204 49.9076 47.9469 49.4107 48.1834C48.9137 48.42 48.4737 48.761 48.1206 49.1831C47.6 49.7038 47.345 49.9375 46.75 49.9375C46.155 49.9375 45.9 49.7038 45.3794 49.1831C45.0317 48.7547 44.5928 48.4092 44.0947 48.1719C43.5966 47.9347 43.0518 47.8115 42.5 47.8115C41.9482 47.8115 41.4034 47.9347 40.9053 48.1719C40.4072 48.4092 39.9683 48.7547 39.6206 49.1831C39.1 49.7038 38.845 49.9375 38.25 49.9375C37.655 49.9375 37.4 49.7038 36.8794 49.1831C36.5317 48.7547 36.0928 48.4092 35.5947 48.1719C35.0966 47.9347 34.5518 47.8115 34 47.8115C33.4482 47.8115 32.9034 47.9347 32.4053 48.1719C31.9072 48.4092 31.4683 48.7547 31.1206 49.1831C30.6 49.7038 30.345 49.9375 29.75 49.9375C29.155 49.9375 28.9 49.7038 28.3794 49.1831C28.0317 48.7547 27.5928 48.4092 27.0947 48.1719C26.5966 47.9347 26.0518 47.8115 25.5 47.8115C24.9482 47.8115 24.4034 47.9347 23.9053 48.1719C23.4072 48.4092 22.9683 48.7547 22.6206 49.1831C22.1 49.7038 21.845 49.9375 21.25 49.9375C20.655 49.9375 20.4 49.7038 19.8794 49.1831C19.5263 48.761 19.0863 48.42 18.5893 48.1834C18.0924 47.9469 17.5503 47.8204 17 47.8125V44.625C17 44.3432 17.1119 44.073 17.3112 43.8737C17.5105 43.6744 17.7807 43.5625 18.0625 43.5625H49.9375C50.2193 43.5625 50.4895 43.6744 50.6888 43.8737C50.8881 44.073 51 44.3432 51 44.625ZM43.5625 37.1875H45.6875V41.4375H43.5625V37.1875ZM32.9375 37.1875H35.0625V41.4375H32.9375V37.1875ZM24.4375 37.1875V41.4375H22.3125V37.1875H24.4375Z" fill="black"/>
<path d="M44.625 33.9999C45.4704 33.9999 46.2811 33.6641 46.8789 33.0663C47.4767 32.4686 47.8125 31.6578 47.8125 30.8124C47.8125 29.4524 46.1975 26.9662 45.4962 25.9568C45.3983 25.8165 45.268 25.702 45.1163 25.6229C44.9646 25.5437 44.7961 25.5024 44.625 25.5024C44.4539 25.5024 44.2854 25.5437 44.1337 25.6229C43.982 25.702 43.8517 25.8165 43.7538 25.9568C43.0525 26.9662 41.4375 29.4524 41.4375 30.8124C41.4375 31.6578 41.7733 32.4686 42.3711 33.0663C42.9689 33.6641 43.7796 33.9999 44.625 33.9999ZM44.625 28.5281C45.0984 29.2282 45.457 29.9993 45.6875 30.8124C45.6875 31.0942 45.5756 31.3645 45.3763 31.5637C45.177 31.763 44.9068 31.8749 44.625 31.8749C44.3432 31.8749 44.073 31.763 43.8737 31.5637C43.6744 31.3645 43.5625 31.0942 43.5625 30.8124C43.795 30.0001 44.1535 29.2292 44.625 28.5281Z" fill="black"/>
<path d="M62.6875 7.4375H56.3125V5.3125C56.3125 4.46712 55.9767 3.65637 55.3789 3.0586C54.7811 2.46083 53.9704 2.125 53.125 2.125C52.2796 2.125 51.4689 2.46083 50.8711 3.0586C50.2733 3.65637 49.9375 4.46712 49.9375 5.3125V7.4375H43.5625V5.3125C43.5625 4.46712 43.2267 3.65637 42.6289 3.0586C42.0311 2.46083 41.2204 2.125 40.375 2.125C39.5296 2.125 38.7189 2.46083 38.1211 3.0586C37.5233 3.65637 37.1875 4.46712 37.1875 5.3125V7.4375H30.8125V5.3125C30.8125 4.46712 30.4767 3.65637 29.8789 3.0586C29.2811 2.46083 28.4704 2.125 27.625 2.125C26.7796 2.125 25.9689 2.46083 25.3711 3.0586C24.7733 3.65637 24.4375 4.46712 24.4375 5.3125V7.4375H18.0625V5.3125C18.0625 4.46712 17.7267 3.65637 17.1289 3.0586C16.5311 2.46083 15.7204 2.125 14.875 2.125C14.0296 2.125 13.2189 2.46083 12.6211 3.0586C12.0233 3.65637 11.6875 4.46712 11.6875 5.3125V7.4375H5.3125C4.46712 7.4375 3.65637 7.77332 3.0586 8.3711C2.46083 8.96887 2.125 9.77962 2.125 10.625V26.5625C2.125 26.8443 2.23694 27.1145 2.4362 27.3138C2.63546 27.5131 2.90571 27.625 3.1875 27.625C3.46929 27.625 3.73954 27.5131 3.9388 27.3138C4.13806 27.1145 4.25 26.8443 4.25 26.5625V21.25H63.75V54.1875C63.75 54.4693 63.8619 54.7395 64.0612 54.9388C64.2605 55.1381 64.5307 55.25 64.8125 55.25C65.0943 55.25 65.3645 55.1381 65.5638 54.9388C65.7631 54.7395 65.875 54.4693 65.875 54.1875V10.625C65.875 9.77962 65.5392 8.96887 64.9414 8.3711C64.3436 7.77332 63.5329 7.4375 62.6875 7.4375ZM52.0625 5.3125C52.0625 5.03071 52.1744 4.76046 52.3737 4.5612C52.573 4.36194 52.8432 4.25 53.125 4.25C53.4068 4.25 53.677 4.36194 53.8763 4.5612C54.0756 4.76046 54.1875 5.03071 54.1875 5.3125V11.6875C54.1875 11.9693 54.0756 12.2395 53.8763 12.4388C53.677 12.6381 53.4068 12.75 53.125 12.75C52.8432 12.75 52.573 12.6381 52.3737 12.4388C52.1744 12.2395 52.0625 11.9693 52.0625 11.6875V5.3125ZM39.3125 5.3125C39.3125 5.03071 39.4244 4.76046 39.6237 4.5612C39.823 4.36194 40.0932 4.25 40.375 4.25C40.6568 4.25 40.927 4.36194 41.1263 4.5612C41.3256 4.76046 41.4375 5.03071 41.4375 5.3125V11.6875C41.4375 11.9693 41.3256 12.2395 41.1263 12.4388C40.927 12.6381 40.6568 12.75 40.375 12.75C40.0932 12.75 39.823 12.6381 39.6237 12.4388C39.4244 12.2395 39.3125 11.9693 39.3125 11.6875V5.3125ZM26.5625 5.3125C26.5625 5.03071 26.6744 4.76046 26.8737 4.5612C27.073 4.36194 27.3432 4.25 27.625 4.25C27.9068 4.25 28.177 4.36194 28.3763 4.5612C28.5756 4.76046 28.6875 5.03071 28.6875 5.3125V11.6875C28.6875 11.9693 28.5756 12.2395 28.3763 12.4388C28.177 12.6381 27.9068 12.75 27.625 12.75C27.3432 12.75 27.073 12.6381 26.8737 12.4388C26.6744 12.2395 26.5625 11.9693 26.5625 11.6875V5.3125ZM13.8125 5.3125C13.8125 5.03071 13.9244 4.76046 14.1237 4.5612C14.323 4.36194 14.5932 4.25 14.875 4.25C15.1568 4.25 15.427 4.36194 15.6263 4.5612C15.8256 4.76046 15.9375 5.03071 15.9375 5.3125V11.6875C15.9375 11.9693 15.8256 12.2395 15.6263 12.4388C15.427 12.6381 15.1568 12.75 14.875 12.75C14.5932 12.75 14.323 12.6381 14.1237 12.4388C13.9244 12.2395 13.8125 11.9693 13.8125 11.6875V5.3125ZM4.25 19.125V10.625C4.25 10.3432 4.36194 10.073 4.5612 9.8737C4.76046 9.67444 5.03071 9.5625 5.3125 9.5625H11.6875V11.6875C11.6875 12.5329 12.0233 13.3436 12.6211 13.9414C13.2189 14.5392 14.0296 14.875 14.875 14.875C15.7204 14.875 16.5311 14.5392 17.1289 13.9414C17.7267 13.3436 18.0625 12.5329 18.0625 11.6875V9.5625H24.4375V11.6875C24.4375 12.5329 24.7733 13.3436 25.3711 13.9414C25.9689 14.5392 26.7796 14.875 27.625 14.875C28.4704 14.875 29.2811 14.5392 29.8789 13.9414C30.4767 13.3436 30.8125 12.5329 30.8125 11.6875V9.5625H37.1875V11.6875C37.1875 12.5329 37.5233 13.3436 38.1211 13.9414C38.7189 14.5392 39.5296 14.875 40.375 14.875C41.2204 14.875 42.0311 14.5392 42.6289 13.9414C43.2267 13.3436 43.5625 12.5329 43.5625 11.6875V9.5625H49.9375V11.6875C49.9375 12.5329 50.2733 13.3436 50.8711 13.9414C51.4689 14.5392 52.2796 14.875 53.125 14.875C53.9704 14.875 54.7811 14.5392 55.3789 13.9414C55.9767 13.3436 56.3125 12.5329 56.3125 11.6875V9.5625H62.6875C62.9693 9.5625 63.2395 9.67444 63.4388 9.8737C63.6381 10.073 63.75 10.3432 63.75 10.625V19.125H4.25Z" fill="black"/>
<path d="M64.8125 57.375C64.5307 57.375 64.2605 57.4869 64.0612 57.6862C63.8619 57.8855 63.75 58.1557 63.75 58.4375V62.6875C63.75 62.9693 63.6381 63.2395 63.4388 63.4388C63.2395 63.6381 62.9693 63.75 62.6875 63.75H5.3125C5.03071 63.75 4.76046 63.6381 4.5612 63.4388C4.36194 63.2395 4.25 62.9693 4.25 62.6875V30.8125C4.25 30.5307 4.13806 30.2605 3.9388 30.0612C3.73954 29.8619 3.46929 29.75 3.1875 29.75C2.90571 29.75 2.63546 29.8619 2.4362 30.0612C2.23694 30.2605 2.125 30.5307 2.125 30.8125V62.6875C2.125 63.5329 2.46083 64.3436 3.0586 64.9414C3.65637 65.5392 4.46712 65.875 5.3125 65.875H62.6875C63.5329 65.875 64.3436 65.5392 64.9414 64.9414C65.5392 64.3436 65.875 63.5329 65.875 62.6875V58.4375C65.875 58.1557 65.7631 57.8855 65.5638 57.6862C65.3645 57.4869 65.0943 57.375 64.8125 57.375Z" fill="black"/>
</svg>
