<svg width="84" height="84" viewBox="0 0 84 84" fill="none" xmlns="http://www.w3.org/2000/svg">
<path d="M42 82.8496C64.5617 82.8496 82.8516 64.5597 82.8516 41.998C82.8516 19.4364 64.5617 1.14648 42 1.14648C19.4383 1.14648 1.14844 19.4364 1.14844 41.998C1.14844 64.5597 19.4383 82.8496 42 82.8496Z" fill="#5E4D80"/>
<path d="M41.9997 58.7751C51.2643 58.7751 58.7747 51.2647 58.7747 42C58.7747 32.7354 51.2643 25.225 41.9997 25.225C32.7351 25.225 25.2246 32.7354 25.2246 42C25.2246 51.2647 32.7351 58.7751 41.9997 58.7751Z" fill="#FF6699"/>
<path d="M38.7993 47.5453L30.9092 48.4037L35.5968 42L30.9092 35.5963L38.7993 36.4547L42.0011 29.1926L45.203 36.4547L53.0931 35.5963L48.4048 42L53.0931 48.4037L45.203 47.5453L42.0011 54.8074L38.7993 47.5453Z" fill="#FFDF40"/>
<path d="M44.9687 18.7425H43.1489V11.3203C43.1489 11.1101 43.0912 10.9039 42.982 10.7242C42.8729 10.5445 42.7165 10.3982 42.53 10.3012C42.3434 10.2043 42.1338 10.1604 41.924 10.1744C41.7142 10.1884 41.5123 10.2597 41.3403 10.3806L38.3714 12.4688C38.1254 12.6452 37.959 12.9116 37.9084 13.2101C37.8578 13.5086 37.9271 13.815 38.1012 14.0626C38.2753 14.3102 38.5402 14.4791 38.8382 14.5325C39.1361 14.5859 39.4432 14.5194 39.6924 14.3476L40.852 13.5326V18.7425H39.0322C38.7276 18.7425 38.4355 18.8635 38.2202 19.0789C38.0048 19.2943 37.8838 19.5864 37.8838 19.891C37.8838 20.1956 38.0048 20.4877 38.2202 20.703C38.4355 20.9184 38.7276 21.0394 39.0322 21.0394H44.9687C45.2732 21.0394 45.5654 20.9184 45.7807 20.703C45.9961 20.4877 46.1171 20.1956 46.1171 19.891C46.1171 19.5864 45.9961 19.2943 45.7807 19.0789C45.5654 18.8635 45.2732 18.7425 44.9687 18.7425Z" fill="#FFDF40"/>
<path d="M67.0777 34.3284H61.1406C60.9898 34.3285 60.8404 34.2989 60.701 34.2412C60.5617 34.1835 60.435 34.0989 60.3284 33.9923C60.2217 33.8856 60.1371 33.759 60.0794 33.6196C60.0217 33.4802 59.9921 33.3308 59.9922 33.18V31.6496C59.9923 31.461 60.0389 31.2753 60.1277 31.109C60.2165 30.9426 60.3448 30.8006 60.5014 30.6954L65.9293 27.0598V25.7585H62.2891V26.924C62.2891 27.2286 62.1681 27.5207 61.9527 27.736C61.7373 27.9514 61.4452 28.0724 61.1406 28.0724C60.836 28.0724 60.5439 27.9514 60.3286 27.736C60.1132 27.5207 59.9922 27.2286 59.9922 26.924V24.6094C59.9921 24.4585 60.0217 24.3092 60.0794 24.1698C60.1371 24.0304 60.2217 23.9038 60.3284 23.7971C60.435 23.6905 60.5617 23.6059 60.701 23.5482C60.8404 23.4905 60.9898 23.4609 61.1406 23.4609H67.0777C67.2286 23.4609 67.3779 23.4905 67.5173 23.5482C67.6567 23.6059 67.7833 23.6905 67.89 23.7971C67.9966 23.9038 68.0812 24.0304 68.1389 24.1698C68.1966 24.3092 68.2262 24.4585 68.2262 24.6094V27.6727C68.2262 27.8615 68.1797 28.0473 68.0908 28.2137C68.0018 28.3802 67.8732 28.5221 67.7162 28.6269L62.6336 32.0316H67.0777C67.3823 32.0316 67.6744 32.1526 67.8898 32.3679C68.1052 32.5833 68.2262 32.8754 68.2262 33.18C68.2262 33.4846 68.1052 33.7767 67.8898 33.9921C67.6744 34.2074 67.3823 34.3284 67.0777 34.3284Z" fill="#FFDF40"/>
<path d="M66.051 62.4862H60.1133C59.9624 62.4863 59.8131 62.4566 59.6737 62.3989C59.5343 62.3412 59.4077 62.2566 59.301 62.15C59.1944 62.0433 59.1098 61.9167 59.0521 61.7773C58.9944 61.6379 58.9648 61.4886 58.9648 61.3377V59.3034C58.9648 58.9988 59.0858 58.7067 59.3012 58.4913C59.5166 58.2759 59.8087 58.1549 60.1133 58.1549C60.4179 58.1549 60.71 58.2759 60.9254 58.4913C61.1407 58.7067 61.2617 58.9988 61.2617 59.3034V60.1919H64.9039V59.3289L62.5414 58.065C62.3581 57.967 62.2048 57.8211 62.098 57.6428C61.9911 57.4646 61.9347 57.2606 61.9347 57.0527C61.9347 56.8449 61.9911 56.6409 62.098 56.4627C62.2048 56.2844 62.3581 56.1385 62.5414 56.0405L64.9039 54.7765V53.9162H61.263V54.8048C61.263 55.1093 61.142 55.4015 60.9267 55.6168C60.7113 55.8322 60.4192 55.9532 60.1146 55.9532C59.81 55.9532 59.5179 55.8322 59.3025 55.6168C59.0872 55.4015 58.9662 55.1093 58.9662 54.8048V52.7704C58.9661 52.6195 58.9957 52.4702 59.0534 52.3308C59.1111 52.1914 59.1957 52.0648 59.3023 51.9581C59.409 51.8515 59.5356 51.7669 59.675 51.7092C59.8144 51.6515 59.9638 51.6219 60.1146 51.6219H66.051C66.2019 51.6219 66.3512 51.6515 66.4906 51.7092C66.63 51.7669 66.7566 51.8515 66.8633 51.9581C66.9699 52.0648 67.0545 52.1914 67.1122 52.3308C67.1699 52.4702 67.1996 52.6195 67.1995 52.7704V55.4676C67.1995 55.6753 67.1431 55.8792 67.0363 56.0575C66.9295 56.2357 66.7763 56.3816 66.5931 56.4795L65.5175 57.0557L66.5931 57.6312C66.7763 57.7292 66.9295 57.875 67.0363 58.0533C67.1431 58.2315 67.1995 58.4354 67.1995 58.6432V61.3404C67.1989 61.6445 67.0777 61.9361 66.8624 62.1509C66.647 62.3658 66.3552 62.4863 66.051 62.4862Z" fill="#FFDF40"/>
<path d="M44.9688 62.4094C44.6643 62.4094 44.3721 62.5304 44.1568 62.7458C43.9414 62.9612 43.8204 63.2533 43.8204 63.5579V66.6941H40.7111L41.7696 63.9739C41.8801 63.6901 41.8732 63.3739 41.7506 63.0951C41.6279 62.8163 41.3995 62.5976 41.1157 62.4872C40.8318 62.3768 40.5157 62.3836 40.2369 62.5063C39.958 62.6289 39.7394 62.8573 39.6289 63.1411L37.9621 67.4258C37.8943 67.5999 37.87 67.7879 37.8913 67.9734C37.9126 68.159 37.9788 68.3366 38.0843 68.4908C38.1897 68.645 38.3312 68.7711 38.4964 68.8583C38.6616 68.9455 38.8456 68.991 39.0324 68.991H43.823V72.1219C43.823 72.4265 43.944 72.7186 44.1594 72.934C44.3748 73.1494 44.6669 73.2704 44.9715 73.2704C45.2761 73.2704 45.5682 73.1494 45.7835 72.934C45.9989 72.7186 46.1199 72.4265 46.1199 72.1219V63.5552C46.1196 63.4044 46.0897 63.2551 46.0317 63.1159C45.9737 62.9766 45.8888 62.8502 45.7819 62.7438C45.675 62.6373 45.5481 62.553 45.4086 62.4957C45.2691 62.4383 45.1197 62.409 44.9688 62.4094Z" fill="#FFDF40"/>
<path d="M22.2759 62.4862H18.4814C18.1769 62.4862 17.8848 62.3652 17.6694 62.1498C17.454 61.9344 17.333 61.6423 17.333 61.3377C17.333 61.0332 17.454 60.741 17.6694 60.5257C17.8848 60.3103 18.1769 60.1893 18.4814 60.1893H22.2759C22.4086 60.1927 22.5406 60.1695 22.6641 60.1211C22.7877 60.0727 22.9003 60 22.9954 59.9074C23.0904 59.8148 23.1659 59.704 23.2175 59.5818C23.2691 59.4595 23.2956 59.3281 23.2956 59.1954C23.2956 59.0627 23.2691 58.9313 23.2175 58.809C23.1659 58.6868 23.0904 58.576 22.9954 58.4834C22.9003 58.3908 22.7877 58.3181 22.6641 58.2697C22.5406 58.2213 22.4086 58.1981 22.2759 58.2015H18.4814C18.1769 58.2013 17.8849 58.0803 17.6696 57.865C17.4542 57.6496 17.3332 57.3576 17.333 57.0531V52.7678C17.333 52.4632 17.454 52.1711 17.6694 51.9557C17.8848 51.7403 18.1769 51.6193 18.4814 51.6193H24.4185C24.7231 51.6193 25.0152 51.7403 25.2306 51.9557C25.446 52.1711 25.567 52.4632 25.567 52.7678C25.567 53.0723 25.446 53.3645 25.2306 53.5798C25.0152 53.7952 24.7231 53.9162 24.4185 53.9162H19.6279V55.9046H22.2739C22.71 55.8985 23.1429 55.979 23.5476 56.1417C23.9522 56.3043 24.3205 56.5457 24.6311 56.8519C24.9416 57.1581 25.1882 57.5229 25.3565 57.9252C25.5248 58.3275 25.6115 58.7593 25.6115 59.1954C25.6115 59.6315 25.5248 60.0633 25.3565 60.4656C25.1882 60.8679 24.9416 61.2327 24.6311 61.5389C24.3205 61.8451 23.9522 62.0865 23.5476 62.2491C23.1429 62.4118 22.71 62.4923 22.2739 62.4862H22.2759Z" fill="#FFDF40"/>
<path d="M23.1656 34.3284H17.2266C16.922 34.3284 16.6299 34.2074 16.4145 33.9921C16.1991 33.7767 16.0781 33.4846 16.0781 33.18V24.6094C16.0781 24.3048 16.1991 24.0127 16.4145 23.7973C16.6299 23.5819 16.922 23.4609 17.2266 23.4609H23.1656C23.4702 23.4609 23.7623 23.5819 23.9777 23.7973C24.1931 24.0127 24.3141 24.3048 24.3141 24.6094C24.3141 24.914 24.1931 25.2061 23.9777 25.4214C23.7623 25.6368 23.4702 25.7578 23.1656 25.7578H18.375V27.7462H23.1656C23.4702 27.7464 23.7622 27.8675 23.9775 28.0828C24.1928 28.2981 24.3139 28.5902 24.3141 28.8947V33.18C24.3141 33.4846 24.1931 33.7767 23.9777 33.9921C23.7623 34.2074 23.4702 34.3284 23.1656 34.3284ZM18.375 32.0316H22.0152V30.0431H18.375V32.0316Z" fill="#FFDF40"/>
<path d="M74.3787 24.6324L77.9454 22.573C77.5799 21.8984 77.1927 21.2382 76.7911 20.5872L73.2237 22.6472C70.2279 17.8335 66.1668 13.772 61.3535 10.7756L63.4128 7.20827C62.7618 6.80664 62.1003 6.42077 61.427 6.05392L59.3677 9.62064C54.3722 6.9322 48.8189 5.44496 43.1484 5.27692V1.17536C42.7658 1.16486 42.3852 1.14648 42 1.14648C41.6148 1.14648 41.2342 1.16486 40.8516 1.17536V5.27692C35.1811 5.44496 29.6278 6.9322 24.6323 9.62064L22.575 6.05392C21.901 6.41945 21.2402 6.80664 20.5892 7.20827L22.6492 10.7756C17.8348 13.7716 13.7728 17.8332 10.7763 22.6472L7.20891 20.5872C6.80728 21.2382 6.42141 21.8997 6.05456 22.573L9.62194 24.6324C6.93318 29.6279 5.44613 35.1815 5.27887 40.8522H1.17731C1.16681 41.2342 1.14844 41.6135 1.14844 41.998C1.14844 42.3826 1.16681 42.7659 1.17731 43.1491H5.27887C5.44722 48.8192 6.93469 54.372 9.62325 59.367L6.05653 61.425C6.42141 62.099 6.80925 62.7598 7.21022 63.4108L10.7782 61.3509C13.7741 66.1638 17.8352 70.2244 22.6485 73.2198L20.5885 76.7878C21.2395 77.1888 21.901 77.5753 22.5743 77.9415L24.6337 74.3748C29.6283 77.0629 35.1807 78.5499 40.8503 78.7179V82.8194C41.2335 82.8299 41.6148 82.8483 42 82.8483C42.3852 82.8483 42.7652 82.8299 43.1471 82.8194V78.7179C48.8175 78.55 54.3708 77.063 59.3663 74.3748L61.425 77.9428C62.0996 77.5779 62.7598 77.1901 63.4108 76.7891L61.3508 73.2211C66.1641 70.2258 70.2252 66.1651 73.2211 61.3522L76.7885 63.4115C77.1901 62.7611 77.576 62.099 77.9428 61.4257L74.3761 59.3664C77.0649 54.3717 78.5522 48.819 78.7198 43.1491H82.822C82.8325 42.7659 82.8509 42.3839 82.8509 41.998C82.8509 41.6122 82.8325 41.2342 82.822 40.8522H78.7205C78.5533 35.1817 77.0667 29.6281 74.3787 24.6324ZM42 76.4531C35.1858 76.4531 28.5247 74.4325 22.8589 70.6467C17.1931 66.861 12.7771 61.4801 10.1695 55.1847C7.56179 48.8892 6.8795 41.9618 8.20888 35.2785C9.53826 28.5953 12.8196 22.4563 17.638 17.638C22.4563 12.8196 28.5953 9.53828 35.2785 8.2089C41.9618 6.87952 48.8892 7.5618 55.1846 10.1695C61.4801 12.7772 66.861 17.1931 70.6467 22.8589C74.4325 28.5247 76.4531 35.1858 76.4531 42C76.4427 51.1344 72.8095 59.8916 66.3505 66.3505C59.8916 72.8095 51.1343 76.4427 42 76.4531Z" fill="#C68CFF"/>
</svg>
