<svg width="74" height="82" viewBox="0 0 74 82" fill="none" xmlns="http://www.w3.org/2000/svg">
<path d="M39.1923 8.58309L36.5223 15.8161L26.251 19.8073C25.2949 13.3527 28.2562 6.66074 33.6778 1.87223C34.5716 1.42539 35.547 1.20117 36.5223 1.20117L39.1923 8.58309Z" fill="#B18CD9"/>
<path d="M33.6779 1.87219C30.1815 7.21372 27.6733 13.3254 26.2512 19.8073L22.4361 21.2903L2.49902 20.4319C3.00352 19.7689 3.64094 19.2001 4.38566 18.7693L33.3368 2.05477C33.4489 1.99071 33.5626 1.92985 33.6779 1.87219Z" fill="#A57CD2"/>
<path d="M14.3369 48.8017L10.3834 57.1644L1.93852 60.6874C1.4558 59.7751 1.20052 58.7573 1.2002 57.7163V24.2871C1.2002 23.3998 1.38758 22.5364 1.73191 21.7468L11.0581 32.7228L14.3369 48.8017Z" fill="#A57CD2"/>
<path d="M35.8323 80.7621C34.9548 80.667 34.1071 80.3941 33.3369 79.9485L4.38582 63.234C3.32719 62.6238 2.49118 61.7315 1.93848 60.6873L14.3367 48.8016L26.2391 60.6873L35.8323 80.7621Z" fill="#B18CD9"/>
<path d="M70.5459 20.4319H53.5341L36.5225 15.8161V1.20117C37.6227 1.20117 38.7232 1.48625 39.7081 2.0548L68.6593 18.7694C69.404 19.2003 70.0414 19.7689 70.5459 20.4319Z" fill="#BD9CDE"/>
<path d="M71.1046 60.6858C70.5553 61.7445 69.692 62.6381 68.6589 63.2341L44.8571 76.976C41.7403 76.8671 40.7217 74.5349 40.7217 72.9719L46.2554 60.6874L58.708 48.8018L65.8225 51.9906L71.1046 60.6858Z" fill="#B18CD9"/>
<path d="M44.8575 76.9759L39.7083 79.9485C38.9379 80.3922 38.0923 80.6708 37.2129 80.7621L40.7221 72.9718C42.0163 74.3523 43.3936 75.6898 44.8575 76.9759Z" fill="#A57CD2"/>
<path d="M71.8445 24.2871V57.7164C71.8445 58.7702 71.5834 59.7857 71.1046 60.6858L58.708 48.8018L62.4489 32.723L71.3112 21.7502C71.6555 22.5398 71.8445 23.3999 71.8445 24.2871Z" fill="#BD9CDE"/>
<path d="M58.7082 48.8017L37.2127 53.2205L27.9087 51.4236C21.4451 44.0921 21.1226 34.2013 25.2179 26.1658L36.5224 15.816L50.9835 30.3989L58.7082 48.8017Z" fill="#FBF198"/>
<path d="M27.9092 51.4234L14.3369 48.8015L22.4363 28.7123L25.2184 26.1656C24.3295 34.4638 25.164 43.1382 27.9092 51.4234Z" fill="#FAD989"/>
<path d="M71.3114 21.7485C71.3114 21.7502 58.7083 48.8017 58.7083 48.8017L36.5225 15.816L70.5459 20.4319C70.8515 20.8393 71.1116 21.2807 71.3114 21.7485Z" fill="#83DEFF"/>
<path d="M58.7078 48.8017L41.74 74.0304C31.5725 69.9151 26.0053 57.7142 27.1075 48.8015H58.7078V48.8017Z" fill="#83DEFF"/>
<path d="M41.7408 74.0304L37.213 80.7621C36.7549 80.8101 36.2921 80.8117 35.8324 80.7621L14.3369 48.8016H27.1083C29.6629 57.9052 34.4581 66.6438 41.7408 74.0304Z" fill="#2ECEFB"/>
<path d="M36.5227 15.816L24.8805 33.1249C22.0971 27.9821 23.3409 20.9936 26.9097 17.1199L36.5227 15.816Z" fill="#2ECEFB"/>
<path d="M24.8808 33.1249L14.3372 48.8017L1.73242 21.7469C1.93582 21.2809 2.19367 20.8373 2.49957 20.4321L26.9099 17.1199C25.5214 22.2482 24.8279 27.6521 24.8808 33.1249Z" fill="#00BDFD"/>
<path d="M73.046 57.716V24.2874C73.0433 23.2022 72.8118 22.1485 72.3736 21.1845C71.718 19.7423 70.6464 18.5312 69.2596 17.729L54.8277 9.39669C54.2528 9.065 53.5185 9.26168 53.1868 9.83632C52.8551 10.4108 53.0519 11.1454 53.6264 11.4773L65.9596 18.5978L37.724 14.7666L37.7242 2.54793C38.2038 2.66196 38.6708 2.84261 39.1082 3.09518L48.7673 8.67182C49.3417 9.00318 50.0764 8.80667 50.4082 8.23219C50.7399 7.65771 50.5431 6.92307 49.9686 6.59123L40.3096 1.01459C39.1404 0.334727 37.8355 0.0177773 36.523 0C35.2107 0.0177773 33.9054 0.334727 32.7364 1.01459L3.78641 17.729C2.39962 18.531 1.32802 19.7423 0.672336 21.1845C0.234148 22.1485 0.00272266 23.2022 0 24.2874V57.716C0.00144141 58.9995 0.329281 60.237 0.928105 61.3341C1.58571 62.5388 2.5625 63.5676 3.78641 64.2742L32.7364 80.9886C33.9041 81.6624 35.1995 82 36.523 82C37.8465 82 39.1419 81.6624 40.3096 80.9886L69.2596 64.2742C70.5359 63.537 71.5428 62.4539 72.2005 61.1798C72.7454 60.1241 73.046 58.9394 73.046 57.716ZM36.5483 79.5978C36.5315 79.5978 36.5145 79.5978 36.4977 79.5978L16.5931 50.0029H24.0531C24.7166 50.0029 25.2542 49.4651 25.2542 48.8017C25.2542 48.1382 24.7164 47.6005 24.0531 47.6005H16.5935L36.523 17.9683L56.4527 47.6005H29.6587C28.9952 47.6005 28.4575 48.1383 28.4575 48.8017C28.4575 49.4652 28.9953 50.0029 29.6587 50.0029H56.4525L36.5483 79.5978ZM2.40234 57.716V26.0307L12.8859 48.5296L2.46785 58.5166C2.42621 58.2536 2.40234 57.9865 2.40234 57.716ZM3.06459 21.7636C3.10495 21.6914 3.14787 21.6208 3.19159 21.5506L34.0326 17.3657L14.5281 46.366L3.06459 21.7636ZM58.5176 46.366L39.0131 17.3659L69.8544 21.5508C69.8983 21.6209 69.941 21.6916 69.9814 21.7638L58.5176 46.366ZM70.6436 26.0305V57.716C70.6436 57.9865 70.6198 58.2536 70.5783 58.5166L60.16 48.5294L70.6436 26.0305ZM33.9378 3.09518C34.3751 2.84261 34.8422 2.66196 35.3218 2.54793L35.3217 14.7666L7.08627 18.5978L33.9378 3.09518ZM3.48132 60.8731L14.138 50.6573L32.631 78.1537L4.98775 62.1938C4.39549 61.8519 3.88699 61.4001 3.48132 60.8731ZM68.0582 62.1938L40.4146 78.1538L58.9077 50.6573L69.5647 60.8731C69.159 61.4001 68.6505 61.8519 68.0582 62.1938Z" fill="black"/>
<path d="M58.1766 23.3706H55.9463C55.2828 23.3706 54.7451 23.9084 54.7451 24.5718C54.7451 25.2351 55.2829 25.7729 55.9463 25.7729H56.9755V35.0068C56.9755 35.6703 57.5133 36.2079 58.1766 36.2079C58.8402 36.2079 59.3778 35.6701 59.3778 35.0068V24.5718C59.3778 23.9082 58.84 23.3706 58.1766 23.3706Z" fill="black"/>
<path d="M14.7129 36.1066C15.3056 36.3713 16.0287 36.1038 16.296 35.4903L20.8832 25.0553C21.0466 24.6839 21.0112 24.255 20.7894 23.9153C20.5676 23.5756 20.1893 23.3706 19.7834 23.3706H14.043C13.3794 23.3706 12.8418 23.9084 12.8418 24.5718C12.8418 25.2351 13.3796 25.7729 14.043 25.7729H17.9434L14.0966 34.5232C13.8296 35.1307 14.1056 35.8394 14.7129 36.1066Z" fill="black"/>
<path d="M40.3941 59.8343C40.3941 57.6996 38.6574 55.9629 36.5227 55.9629C34.6767 55.9629 33.0793 57.2762 32.7241 59.0855C32.5963 59.7365 33.0205 60.3677 33.6714 60.4955C34.3224 60.6231 34.9536 60.199 35.0814 59.5481C35.2159 58.8628 35.822 58.3654 36.5225 58.3654C37.3326 58.3654 37.9915 59.0243 37.9915 59.8343C37.9915 60.6443 37.3326 61.3031 36.5225 61.3031C35.859 61.3031 35.3213 61.8409 35.3213 62.5043C35.3213 63.1678 35.8591 63.7055 36.5225 63.7055C37.3326 63.7055 37.9915 64.3644 37.9915 65.1744C37.9915 65.9843 37.3326 66.6432 36.5225 66.6432C35.7936 66.6432 35.1684 66.1005 35.068 65.3804C35.0585 65.313 35.0537 65.2436 35.0537 65.1744C35.0537 64.5109 34.5159 63.9733 33.8525 63.9733C33.1892 63.9733 32.6514 64.5111 32.6514 65.1744C32.6514 65.3546 32.6639 65.5359 32.6887 65.7127C32.9536 67.6128 34.6019 69.0456 36.5225 69.0456C38.6572 69.0456 40.394 67.309 40.394 65.1743C40.394 64.1397 39.9852 63.1994 39.3217 62.5042C39.9854 61.8092 40.3941 60.869 40.3941 59.8343Z" fill="black"/>
<path d="M36.5225 42.6744C38.8487 42.6744 40.7412 40.7818 40.7412 38.4557C40.7412 36.1294 38.8487 34.2369 36.5225 34.2369C36.3863 34.2369 36.2514 34.2439 36.1183 34.2567C36.9915 32.8738 37.9414 32.1336 37.9707 32.1111C38.4997 31.7144 38.6089 30.9644 38.2138 30.4333C37.8179 29.901 37.0652 29.7903 36.5331 30.1864C36.4309 30.0514 32.3223 33.9542 32.3037 38.4557C32.3037 40.7818 34.1963 42.6744 36.5225 42.6744ZM38.3387 38.4557C38.3387 39.4572 37.524 40.2719 36.5225 40.2719C35.5211 40.2719 34.7062 39.4572 34.7062 38.4557C34.7062 37.4543 35.5211 36.6394 36.5225 36.6394C37.524 36.6394 38.3387 37.4543 38.3387 38.4557Z" fill="black"/>
</svg>
