<svg width="158" height="158" viewBox="0 0 158 158" fill="none" xmlns="http://www.w3.org/2000/svg">
<g opacity="0.8">
<path d="M93.8665 114.761C72.4094 116.489 50.9226 116.372 29.4369 117.019" stroke="#AE8C00" stroke-width="1.77859" stroke-miterlimit="1.5" stroke-linecap="round" stroke-linejoin="round"/>
<path d="M109.408 114.318C107.936 114.221 106.467 114.151 104.992 114.116" stroke="#AE8C00" stroke-width="1.77859" stroke-miterlimit="1.5" stroke-linecap="round" stroke-linejoin="round"/>
<path d="M21.4184 100.317C49.562 102.204 78.3942 100.307 106.525 98.7774" stroke="#AE8C00" stroke-width="1.77859" stroke-miterlimit="1.5" stroke-linecap="round" stroke-linejoin="round"/>
<path d="M130.901 96.1171C128.127 96.3937 125.377 96.4963 122.597 96.6322" stroke="#AE8C00" stroke-width="1.77859" stroke-miterlimit="1.5" stroke-linecap="round" stroke-linejoin="round"/>
<path d="M89.4534 84.6108C82.6068 84.5448 75.7782 85.4127 68.9439 85.6413C56.677 86.0513 44.4539 85.5597 32.1945 85.2857" stroke="#AE8C00" stroke-width="1.77859" stroke-miterlimit="1.5" stroke-linecap="round" stroke-linejoin="round"/>
<path d="M99.8795 84.3026C103.439 84.0919 107.005 83.7951 110.55 83.3968" stroke="#AE8C00" stroke-width="1.77859" stroke-miterlimit="1.5" stroke-linecap="round" stroke-linejoin="round"/>
<path d="M58.7176 70.8543C68.4396 70.4352 78.1654 70.425 87.8833 70.0629" stroke="#AE8C00" stroke-width="1.77859" stroke-miterlimit="1.5" stroke-linecap="round" stroke-linejoin="round"/>
<path d="M99.8091 69.7743C102.615 69.5582 105.429 69.3639 108.23 69.0936" stroke="#AE8C00" stroke-width="1.77859" stroke-miterlimit="1.5" stroke-linecap="round" stroke-linejoin="round"/>
<path d="M30.9289 56.5891C47.6316 57.4047 64.3424 56.4658 81.0192 57.1196" stroke="#AE8C00" stroke-width="1.77859" stroke-miterlimit="1.5" stroke-linecap="round" stroke-linejoin="round"/>
<path d="M89.0812 57.0418C90.4143 57.0434 91.7515 57.0672 93.084 57.0208" stroke="#AE8C00" stroke-width="1.77859" stroke-miterlimit="1.5" stroke-linecap="round" stroke-linejoin="round"/>
<path d="M110.117 41.1483C93.7927 43.6388 76.3134 44.2707 59.8096 43.8886" stroke="#AE8C00" stroke-width="1.77859" stroke-miterlimit="1.5" stroke-linecap="round" stroke-linejoin="round"/>
<path d="M125.721 38.6613C124.208 38.8594 122.697 38.9973 121.174 39.0914" stroke="#AE8C00" stroke-width="1.77859" stroke-miterlimit="1.5" stroke-linecap="round" stroke-linejoin="round"/>
</g>
</svg>
