<svg width="103" height="78" viewBox="0 0 103 78" fill="none" xmlns="http://www.w3.org/2000/svg">
<g opacity="0.5">
<path fill-rule="evenodd" clip-rule="evenodd" d="M71.2845 65.1911C71.7229 55.5052 71.8487 45.7045 71.9105 36.0145C67.5891 39.2104 64.042 42.8136 60.3897 46.7641C57.1951 43.3485 51.1747 39.1724 46.9879 37.1357C43.6997 42.1439 41.4918 46.5654 39.1885 51.9745C34.9742 49.8645 30.8821 48.3791 26.2576 47.378C29.5304 55.8586 33.3433 64.0686 37.6275 72.0835C41.9772 70.7827 45.5512 68.7737 49.9766 67.7031C57.5813 65.8626 63.4103 65.355 71.2845 65.1911Z" stroke="#58447F" stroke-width="3.32814" stroke-miterlimit="1.5" stroke-linecap="round" stroke-linejoin="round"/>
<path d="M6.12695 47.584C8.60043 47.9536 11.0684 48.4139 13.5483 48.7341" stroke="#58447F" stroke-width="3.32814" stroke-miterlimit="1.5" stroke-linecap="round" stroke-linejoin="round"/>
<path d="M22.9961 17.2031C24.4951 19.5433 26.1719 21.7603 27.7037 24.0768" stroke="#58447F" stroke-width="3.32814" stroke-miterlimit="1.5" stroke-linecap="round" stroke-linejoin="round"/>
<path d="M54.8818 18.0697C56.1393 14.4993 57.0304 10.8128 58.2787 7.24062" stroke="#58447F" stroke-width="3.32814" stroke-miterlimit="1.5" stroke-linecap="round" stroke-linejoin="round"/>
<path d="M87.0514 32.9118C90.0885 30.7167 93.213 28.5295 96.0447 26.0694" stroke="#58447F" stroke-width="3.32814" stroke-miterlimit="1.5" stroke-linecap="round" stroke-linejoin="round"/>
</g>
</svg>
