<svg width="22" height="23" viewBox="0 0 22 23" fill="none" xmlns="http://www.w3.org/2000/svg">
<g clip-path="url(#clip0_15_1448)">
<path d="M8.88325 3.57783C8.88325 2.75141 9.55559 2.07912 10.382 2.07912H12.5505V0.800802C12.5505 0.557341 12.3532 0.359985 12.1097 0.359985H3.32314C3.07968 0.359985 2.88232 0.557341 2.88232 0.800802V13.8925H8.88325V3.57783Z" fill="#0ED2B3"/>
<path d="M12.1097 0.359985H10.2959C10.5394 0.359985 10.7367 0.557341 10.7367 0.800759V2.07908H12.5506V0.800759C12.5505 0.557341 12.3532 0.359985 12.1097 0.359985Z" fill="#0AB69F"/>
<path d="M8.88355 10.5443H6.2915C6.11353 10.5443 5.96924 10.6885 5.96924 10.8665C5.96924 11.0446 6.11353 11.1888 6.2915 11.1888H8.88355V10.5443Z" fill="white"/>
<path d="M8.88329 3.57783C8.88329 3.3406 8.93894 3.11622 9.03747 2.91663H4.67498C4.55325 2.91663 4.45459 3.01528 4.45459 3.13701V9.22006C4.45459 9.34179 4.55325 9.44044 4.67498 9.44044H8.88329V3.57783Z" fill="white"/>
<path d="M5.23336 11.1888H4.45459C4.27661 11.1888 4.13232 11.0446 4.13232 10.8665C4.13232 10.6885 4.27661 10.5443 4.45459 10.5443H5.23336C5.41133 10.5443 5.55562 10.6885 5.55562 10.8665C5.55562 11.0446 5.41133 11.1888 5.23336 11.1888Z" fill="white"/>
<path d="M6.52246 5.15646H5.3623C5.26739 5.15646 5.19043 5.07951 5.19043 4.98459V3.82443C5.19043 3.72951 5.26739 3.65256 5.3623 3.65256H6.52246C6.61738 3.65256 6.69434 3.72951 6.69434 3.82443V4.98459C6.69434 5.07951 6.61742 5.15646 6.52246 5.15646Z" fill="#766E6E"/>
<path d="M6.52246 8.70453H5.3623C5.26739 8.70453 5.19043 8.62757 5.19043 8.53265V7.3725C5.19043 7.27758 5.26739 7.20062 5.3623 7.20062H6.52246C6.61738 7.20062 6.69434 7.27758 6.69434 7.3725V8.53265C6.69434 8.62757 6.61742 8.70453 6.52246 8.70453Z" fill="#766E6E"/>
<path d="M7.71671 6.50078H6.49219C6.31421 6.50078 6.16992 6.35653 6.16992 6.17851C6.16992 6.00049 6.31421 5.85625 6.49219 5.85625H7.39445V3.77505C7.39445 3.59704 7.53873 3.45279 7.71671 3.45279C7.89469 3.45279 8.03898 3.59704 8.03898 3.77505V6.17856C8.03898 6.35653 7.89469 6.50078 7.71671 6.50078Z" fill="#766E6E"/>
<path d="M5.62773 6.50079H5.31299C5.13501 6.50079 4.99072 6.35655 4.99072 6.17853C4.99072 6.00051 5.13501 5.85626 5.31299 5.85626H5.62773C5.80571 5.85626 5.95 6.00051 5.95 6.17853C5.95 6.35655 5.80571 6.50079 5.62773 6.50079Z" fill="#766E6E"/>
<path d="M8.88312 7.00415C8.86869 7.00217 8.85404 7.00079 8.83904 7.00079H7.71631C7.53833 7.00079 7.39404 7.14504 7.39404 7.32306V8.58204C7.39404 8.76006 7.53833 8.90431 7.71631 8.90431C7.89429 8.90431 8.03857 8.76006 8.03857 8.58204V7.64532H8.83904C8.85404 7.64532 8.86869 7.64395 8.88312 7.64197V7.00415Z" fill="#766E6E"/>
<path d="M8.88334 11.788H4.45459C4.27661 11.788 4.13232 11.9322 4.13232 12.1103C4.13232 12.2883 4.27661 12.4325 4.45459 12.4325H8.88334V11.788Z" fill="white"/>
<path d="M8.88337 13.8484H2.38288C2.01769 13.8484 1.72168 14.1445 1.72168 14.5097V15.4353C1.72168 15.5571 1.82034 15.6557 1.94207 15.6557H8.88337V13.8484Z" fill="#FFD15B"/>
<path d="M19.9561 19.5398V3.57783C19.9561 2.72576 19.2654 2.03503 18.4134 2.03503H10.3821C9.53008 2.03503 8.83936 2.72576 8.83936 3.57783V19.5398H19.9561Z" fill="#DFF6FD"/>
<path d="M18.4133 2.03503H16.6182C17.4702 2.03503 18.161 2.72576 18.161 3.57783V19.5398H19.9561V3.57783C19.9561 2.72576 19.2653 2.03503 18.4133 2.03503Z" fill="#C8EFFE"/>
<path d="M8.83936 20.4949C8.83936 21.347 9.53008 22.0377 10.3821 22.0377H18.4134C19.2654 22.0377 19.9561 21.347 19.9561 20.4949V19.4957H8.83936V20.4949Z" fill="#8379C1"/>
<path d="M18.161 19.4957V20.4949C18.161 21.347 17.4702 22.0377 16.6182 22.0377H18.4133C19.2653 22.0377 19.9561 21.347 19.9561 20.4949V19.4957H18.161Z" fill="#6E61B6"/>
<path d="M17.0352 17.5962H11.7603C11.3951 17.5962 11.0991 17.3001 11.0991 16.935V15.8349C11.0991 15.4697 11.3951 15.1737 11.7603 15.1737H17.0352C17.4004 15.1737 17.6964 15.4697 17.6964 15.8349V16.935C17.6964 17.3001 17.4004 17.5962 17.0352 17.5962Z" fill="#0ED2B3"/>
<path d="M17.035 15.1738H15.2046C15.5697 15.1738 15.8658 15.4698 15.8658 15.835V16.935C15.8658 17.3002 15.5698 17.5962 15.2046 17.5962H17.035C17.4002 17.5962 17.6962 17.3002 17.6962 16.935V15.835C17.6962 15.4698 17.4002 15.1738 17.035 15.1738Z" fill="#0AB69F"/>
<path d="M16.2933 16.7072H12.5024C12.3245 16.7072 12.1802 16.563 12.1802 16.3849C12.1802 16.2069 12.3245 16.0627 12.5024 16.0627H16.2933C16.4713 16.0627 16.6156 16.2069 16.6156 16.3849C16.6156 16.563 16.4713 16.7072 16.2933 16.7072Z" fill="white"/>
<path d="M11.2726 3.604H10.3628C10.1848 3.604 10.0405 3.45976 10.0405 3.28174C10.0405 3.10372 10.1848 2.95947 10.3628 2.95947H11.2726C11.4505 2.95947 11.5948 3.10372 11.5948 3.28174C11.5948 3.45976 11.4505 3.604 11.2726 3.604Z" fill="#8379C1"/>
<path d="M15.5878 21.0155H13.2075C13.0295 21.0155 12.8853 20.8713 12.8853 20.6933C12.8853 20.5152 13.0295 20.371 13.2075 20.371H15.5878C15.7658 20.371 15.9101 20.5152 15.9101 20.6933C15.9101 20.8713 15.7658 21.0155 15.5878 21.0155Z" fill="#54469C"/>
<path d="M17.778 13.4017H11.0174C10.8969 13.4017 10.7993 13.3041 10.7993 13.1837V6.42296C10.7993 6.30252 10.8969 6.2049 11.0174 6.2049H17.778C17.8985 6.2049 17.9961 6.30252 17.9961 6.42296V13.1836C17.9962 13.3041 17.8985 13.4017 17.778 13.4017Z" fill="white"/>
<path d="M17.7779 6.2049H16.4653C16.5858 6.2049 16.6834 6.30252 16.6834 6.42296V13.1836C16.6834 13.3041 16.5858 13.4017 16.4653 13.4017H17.7779C17.8983 13.4017 17.9959 13.3041 17.9959 13.1836V6.42296C17.996 6.30252 17.8983 6.2049 17.7779 6.2049Z" fill="#F9F3F1"/>
<path d="M17.7781 13.724H11.0174C10.7194 13.724 10.4771 13.4816 10.4771 13.1837V6.42299C10.4771 6.12505 10.7194 5.88266 11.0174 5.88266H17.778C18.076 5.88266 18.3184 6.12509 18.3184 6.42299V13.1837C18.3184 13.4816 18.076 13.724 17.7781 13.724ZM11.1216 13.0795H17.6739V6.52715H11.1216V13.0795Z" fill="#99E6FC"/>
<path d="M13.1758 8.75314H11.8008C11.7059 8.75314 11.6289 8.67619 11.6289 8.58127V7.20627C11.6289 7.11135 11.7059 7.03439 11.8008 7.03439H13.1758C13.2707 7.03439 13.3477 7.11135 13.3477 7.20627V8.58127C13.3477 8.67619 13.2707 8.75314 13.1758 8.75314Z" fill="#766E6E"/>
<path d="M16.9946 8.75314H15.6196C15.5247 8.75314 15.4478 8.67619 15.4478 8.58127V7.20627C15.4478 7.11135 15.5247 7.03439 15.6196 7.03439H16.9946C17.0895 7.03439 17.1665 7.11135 17.1665 7.20627V8.58127C17.1665 8.67619 17.0895 8.75314 16.9946 8.75314Z" fill="#766E6E"/>
<path d="M13.1758 12.5722H11.8008C11.7059 12.5722 11.6289 12.4952 11.6289 12.4003V11.0253C11.6289 10.9304 11.7059 10.8535 11.8008 10.8535H13.1758C13.2707 10.8535 13.3477 10.9304 13.3477 11.0253V12.4003C13.3477 12.4952 13.2707 12.5722 13.1758 12.5722Z" fill="#766E6E"/>
<path d="M16.985 12.7127H15.6299C15.4519 12.7127 15.3076 12.5684 15.3076 12.3904C15.3076 12.2124 15.4519 12.0681 15.6299 12.0681H16.6628V11.0352C16.6628 10.8572 16.8071 10.713 16.985 10.713C17.163 10.713 17.3073 10.8572 17.3073 11.0352V12.3904C17.3073 12.5684 17.163 12.7127 16.985 12.7127Z" fill="#766E6E"/>
<path d="M14.3977 10.1255H13.0796C12.9016 10.1255 12.7573 9.98128 12.7573 9.80326C12.7573 9.62524 12.9016 9.481 13.0796 9.481H14.0754V7.21616C14.0754 7.03814 14.2197 6.89389 14.3977 6.89389C14.5756 6.89389 14.7199 7.03814 14.7199 7.21616V9.80326C14.7199 9.98128 14.5756 10.1255 14.3977 10.1255Z" fill="#766E6E"/>
<path d="M12.1494 10.1255H11.8105C11.6326 10.1255 11.4883 9.98127 11.4883 9.80325C11.4883 9.62523 11.6326 9.48099 11.8105 9.48099H12.1494C12.3273 9.48099 12.4716 9.62523 12.4716 9.80325C12.4716 9.98127 12.3274 10.1255 12.1494 10.1255Z" fill="#766E6E"/>
<path d="M16.0386 10.1255H15.6299C15.4519 10.1255 15.3076 9.98127 15.3076 9.80325C15.3076 9.62523 15.4519 9.48099 15.6299 9.48099H16.0386C16.2166 9.48099 16.3609 9.62523 16.3609 9.80325C16.3609 9.98127 16.2166 10.1255 16.0386 10.1255Z" fill="#766E6E"/>
<path d="M16.985 10.1255H16.9004C16.7224 10.1255 16.5781 9.98127 16.5781 9.80325C16.5781 9.62523 16.7224 9.48099 16.9004 9.48099H16.985C17.163 9.48099 17.3073 9.62523 17.3073 9.80325C17.3073 9.98127 17.163 10.1255 16.985 10.1255Z" fill="#766E6E"/>
<path d="M14.3979 12.7127C14.22 12.7127 14.0757 12.5684 14.0757 12.3904V11.0352C14.0757 10.8572 14.22 10.713 14.3979 10.713H16.0387C16.2166 10.713 16.3609 10.8572 16.3609 11.0352C16.3609 11.2133 16.2166 11.3575 16.0387 11.3575H14.7202V12.3904C14.7202 12.5684 14.5759 12.7127 14.3979 12.7127Z" fill="#766E6E"/>
<path d="M18.4134 22.36H10.3821C9.35373 22.36 8.51709 21.5233 8.51709 20.4949V3.57783C8.51709 2.54941 9.35378 1.71277 10.3821 1.71277H18.4134C19.4418 1.71277 20.2784 2.54946 20.2784 3.57783V20.4949C20.2784 21.5233 19.4417 22.36 18.4134 22.36ZM10.3821 2.35726C9.70913 2.35726 9.16162 2.90476 9.16162 3.57778V20.4949C9.16162 21.1679 9.70917 21.7154 10.3821 21.7154H18.4134C19.0864 21.7154 19.6339 21.1679 19.6339 20.4949V3.57783C19.6339 2.90481 19.0863 2.3573 18.4134 2.3573H10.3821V2.35726Z" fill="#54469C"/>
<path d="M17.3271 3.60403C17.5051 3.60403 17.6494 3.45975 17.6494 3.28177C17.6494 3.10379 17.5051 2.9595 17.3271 2.9595C17.1492 2.9595 17.0049 3.10379 17.0049 3.28177C17.0049 3.45975 17.1492 3.60403 17.3271 3.60403Z" fill="#8379C1"/>
<path d="M18.4326 3.60403C18.6106 3.60403 18.7549 3.45975 18.7549 3.28177C18.7549 3.10379 18.6106 2.9595 18.4326 2.9595C18.2546 2.9595 18.1104 3.10379 18.1104 3.28177C18.1104 3.45975 18.2546 3.60403 18.4326 3.60403Z" fill="#8379C1"/>
</g>
<defs>
<clipPath id="clip0_15_1448">
<rect width="22" height="22" fill="white" transform="translate(0 0.359985)"/>
</clipPath>
</defs>
</svg>
