<svg xmlns="http://www.w3.org/2000/svg" fill="none" viewBox="0 0 24 24" height="24" width="24">
<path fill="#D75951" d="M22.694 5.04173L17.3511 0.194531C17.2131 0.0693281 17.0335 0 16.8472 0H7.15296C6.96664 0 6.78701 0.0693281 6.64906 0.194531L1.30615 5.04173C1.14945 5.18386 1.06006 5.38561 1.06006 5.5972C1.06006 9.37219 2.06792 13.0772 3.9747 16.3118C5.82523 19.451 8.47048 22.0746 11.6245 23.8992C11.7407 23.9664 11.8704 24 12.0001 24C12.1298 24 12.2595 23.9664 12.3756 23.8992C15.5296 22.0746 18.1749 19.451 20.0254 16.3118C21.9321 13.0772 22.94 9.37219 22.94 5.5972C22.94 5.38561 22.8507 5.18386 22.694 5.04173ZM12.0001 22.3779C6.25957 18.8837 2.67664 12.6424 2.56287 5.92688L7.44246 1.5H16.5577L21.4373 5.92683C21.3235 12.6423 17.7406 18.8837 12.0001 22.3779ZM15.7869 2.74687H8.21328C8.02695 2.74687 7.84732 2.8162 7.70937 2.94141L4.09231 6.22289C3.92267 6.37673 3.83267 6.59972 3.8479 6.82823C4.02875 9.54122 4.82712 12.2271 6.15668 14.5956C7.48226 16.957 9.353 19.034 11.5666 20.602C11.6965 20.694 11.8482 20.74 12.0001 20.74C12.152 20.74 12.3038 20.694 12.4337 20.602C14.6472 19.034 16.5179 16.957 17.8435 14.5956C19.1731 12.2271 19.9714 9.54122 20.1522 6.82823C20.1675 6.59972 20.0775 6.37673 19.9078 6.22289L16.2908 2.94141C16.1528 2.8162 15.9732 2.74687 15.7869 2.74687ZM12.0001 19.0606C8.18417 16.1744 5.79073 11.8543 5.37223 7.08698L8.50282 4.24687H15.4974L18.6279 7.08698C18.2094 11.8543 15.816 16.1744 12.0001 19.0606ZM10.4697 12.2236L15.6612 7.03219C15.9541 6.73931 16.429 6.73931 16.7218 7.03219C17.0148 7.32506 17.0148 7.79995 16.7218 8.09283L11 13.8147C10.8593 13.9553 10.6685 14.0344 10.4697 14.0344C10.2707 14.0344 10.08 13.9553 9.93931 13.8147L7.90906 11.7844C7.61618 11.4915 7.61618 11.0166 7.90906 10.7237C8.20193 10.4308 8.67678 10.4308 8.9697 10.7237L10.4697 12.2236Z"></path>
</svg>
