<svg width="74" height="74" viewBox="0 0 74 74" fill="none" xmlns="http://www.w3.org/2000/svg">
<g clip-path="url(#clip0_2013_76)">
<path d="M37.8138 25.1403C43.2532 25.1403 47.6628 20.7308 47.6628 15.2913C47.6628 9.85192 43.2532 5.44238 37.8138 5.44238C32.3744 5.44238 27.9648 9.85192 27.9648 15.2913C27.9648 20.7308 32.3744 25.1403 37.8138 25.1403Z" fill="#ADE194"/>
<path d="M33.2717 15.2913C33.2717 10.7717 36.3172 6.96576 40.4672 5.80703C39.6227 5.57123 38.7335 5.44238 37.8138 5.44238C32.3744 5.44238 27.9648 9.85192 27.9648 15.2913C27.9648 20.7308 32.3744 25.1405 37.8138 25.1405C38.7335 25.1405 39.6227 25.0116 40.4672 24.7758C36.3171 23.6169 33.2717 19.811 33.2717 15.2913Z" fill="#97DA7B"/>
<path d="M55.9777 30.82C55.9777 29.8186 56.3835 28.9127 57.04 28.2576C57.6951 27.6011 58.6024 27.1953 59.6024 27.1953C61.6054 27.1953 63.2286 28.8185 63.2286 30.82V37.5028V59.9455C63.2286 60.6911 63.0311 61.4235 62.656 62.0678L60.9097 65.0688V71.5116C60.9097 72.2059 60.3494 72.7702 59.6552 72.7752L41.7675 72.9035C41.066 72.9086 40.4948 72.3413 40.4948 71.6398V66.1994L33.1091 59.3311C32.7018 58.9514 32.3642 58.505 32.1091 58.0108L23.3552 40.9929C23.1233 40.5625 23.0117 40.0943 23.0117 39.6306C23.0117 38.8016 23.3697 37.987 24.0407 37.4261C25.1538 36.4942 26.7857 36.5377 27.8466 37.5262L34.2236 43.4683V18.2024C34.2236 17.201 34.6294 16.2951 35.286 15.6386C35.9561 14.9684 36.8902 14.5591 37.9189 14.5783C39.9073 14.6154 41.4745 16.2954 41.4745 18.284V30.82C41.4745 28.8185 43.0978 27.1953 45.1007 27.1953C46.1022 27.1953 47.008 27.6011 47.6646 28.2576C48.3211 28.9127 48.7269 29.8186 48.7269 30.82C48.7269 28.8185 50.3501 27.1953 52.3517 27.1953C53.3531 27.1953 54.2604 27.6011 54.9155 28.2576C55.5719 28.9127 55.9777 29.8186 55.9777 30.82Z" fill="#FFCEBF"/>
<path d="M44.1965 71.6399V66.1993L36.8108 59.331C36.4035 58.9512 36.0658 58.5049 35.8108 58.0106L27.0569 40.9928C26.825 40.5623 26.7134 40.0942 26.7134 39.6304C26.7134 38.8043 27.0692 37.9926 27.7358 37.432C26.6746 36.5386 25.1163 36.5257 24.0407 37.426C23.3697 37.9869 23.0117 38.8014 23.0117 39.6304C23.0117 40.0942 23.1233 40.5623 23.3552 40.9928L32.1091 58.0106C32.3641 58.5049 32.7018 58.9512 33.1091 59.331L40.4948 66.1993V71.6399C40.4948 72.3413 41.0661 72.9084 41.7674 72.9035L45.2106 72.8789C44.6326 72.7631 44.1965 72.2528 44.1965 71.6399Z" fill="#FFB09E"/>
<path d="M35.8208 43.4684C36.983 43.4684 37.9252 42.5261 37.9252 41.3639V18.2024C37.9252 17.201 38.331 16.2951 38.9875 15.6386C39.1968 15.4293 39.4319 15.2454 39.6876 15.0921C39.1688 14.7776 38.5665 14.5903 37.919 14.5783C36.8901 14.5591 35.9561 14.9684 35.286 15.6386C34.6294 16.2951 34.2236 17.201 34.2236 18.2024V43.4684H35.8208Z" fill="#FFB09E"/>
<path d="M33.8493 58.535C33.5332 58.2408 33.2727 57.8972 33.0755 57.5136L31.2756 54.0148C31.0008 53.4808 30.3455 53.2708 29.8116 53.5455C29.2778 53.8201 29.0677 54.4755 29.3423 55.0093L31.1422 58.5081C31.455 59.1161 31.8675 59.6606 32.3683 60.1267L39.4064 66.6737V72.9131C39.4064 73.5136 39.8929 74.0001 40.4934 74.0001C41.0938 74.0001 41.5803 73.5136 41.5803 72.9131V66.2003C41.5803 65.8984 41.4548 65.6102 41.2337 65.4045L33.8493 58.535Z" fill="black"/>
<path d="M29.1478 49.8777L24.321 40.4953C24.318 40.4894 24.3148 40.4834 24.3116 40.4775C23.9116 39.7341 24.091 38.8012 24.7381 38.2592C25.4287 37.6807 26.4465 37.7076 27.1056 38.3219L33.4826 44.264C33.7993 44.5589 34.2604 44.638 34.6573 44.4654C35.0539 44.293 35.3106 43.9014 35.3106 43.4687V29.5108C35.3106 28.9104 34.8239 28.4238 34.2236 28.4238C33.6233 28.4238 33.1366 28.9104 33.1366 29.5108V40.97L28.5877 36.7313C27.1275 35.3707 24.8725 35.311 23.3425 36.5925C21.9113 37.791 21.5127 39.8524 22.3921 41.498L27.2147 50.8723C27.4076 51.2471 27.7879 51.4623 28.1823 51.4623C28.3497 51.4623 28.5196 51.4233 28.6787 51.3416C29.2122 51.0669 29.4223 50.4115 29.1478 49.8777Z" fill="black"/>
<path d="M59.6021 26.1081C58.1456 26.1081 56.8416 26.7725 55.9764 27.8138C55.1113 26.7725 53.8072 26.1081 52.3508 26.1081C50.8943 26.1081 49.5904 26.7725 48.7252 27.8138C47.8601 26.7725 46.556 26.1081 45.0995 26.1081C44.1652 26.1081 43.2943 26.3826 42.5609 26.8535V18.2028C42.5609 15.6044 40.4468 13.4902 37.8482 13.4902C35.2497 13.4902 33.1357 15.6044 33.1357 18.2028V24.8788C33.1357 25.4793 33.6224 25.9658 34.2227 25.9658C34.823 25.9658 35.3097 25.4793 35.3097 24.8788V18.2028C35.3097 16.8031 36.4486 15.6642 37.8483 15.6642C39.2481 15.6642 40.387 16.8029 40.387 18.2028V37.5096C40.387 38.11 40.8735 38.5966 41.4739 38.5966C42.0744 38.5966 42.5609 38.11 42.5609 37.5096V30.8207C42.5609 29.421 43.6997 28.2821 45.0995 28.2821C46.4994 28.2821 47.6382 29.4208 47.6382 30.8207V37.5035C47.6382 38.104 48.1247 38.5905 48.7252 38.5905C49.3256 38.5905 49.8121 38.104 49.8121 37.5035V30.8207C49.8121 29.421 50.9509 28.2821 52.3508 28.2821C53.7507 28.2821 54.8894 29.4208 54.8894 30.8207V37.5035C54.8894 38.104 55.3759 38.5905 55.9764 38.5905C56.5768 38.5905 57.0634 38.104 57.0634 37.5035V30.8207C57.0634 29.421 58.2022 28.2821 59.6021 28.2821C61.002 28.2821 62.1407 29.4208 62.1407 30.8207V59.9461C62.1407 60.4996 61.9935 61.0453 61.7151 61.5237L59.9697 64.5232C59.8731 64.6893 59.8221 64.8779 59.8221 65.0699V72.7662C59.8221 73.3667 60.3087 73.8532 60.9091 73.8532C61.5096 73.8532 61.9961 73.3667 61.9961 72.7662V65.3633L63.594 62.6171C64.0654 61.8069 64.3146 60.8834 64.3146 59.9461V30.8207C64.3147 28.2222 62.2007 26.1081 59.6021 26.1081Z" fill="black"/>
<path d="M46.8212 15.2912C46.8212 17.2914 46.1778 19.1864 44.9602 20.7715C44.5947 21.2476 44.6841 21.93 45.1602 22.2958C45.3576 22.4474 45.5905 22.5207 45.8216 22.5207C46.1478 22.5207 46.4706 22.3745 46.6845 22.0958C48.1963 20.1276 48.9951 17.7746 48.9951 15.2914C48.9951 13.5747 48.615 11.9258 47.8653 10.3907C47.6021 9.85109 46.9512 9.62717 46.4116 9.89094C45.8722 10.1543 45.6484 10.8053 45.9119 11.3446C46.5152 12.58 46.8212 13.9079 46.8212 15.2912Z" fill="black"/>
<path d="M29.0216 22.1981C29.2361 22.4708 29.5549 22.613 29.8767 22.613C30.112 22.613 30.3488 22.5371 30.5481 22.3804C31.02 22.0092 31.1016 21.326 30.7304 20.8541C29.4706 19.2525 28.8048 17.3291 28.8048 15.2915C28.8048 10.3241 32.8461 6.28286 37.8135 6.28286C39.8119 6.28286 41.7058 6.92549 43.2902 8.14103C43.7663 8.5064 44.4489 8.4164 44.8143 7.9403C45.1796 7.46405 45.0898 6.78171 44.6135 6.4162C42.6461 4.90659 40.2947 4.10889 37.8135 4.10889C31.6474 4.10889 26.6309 9.1254 26.6309 15.2915C26.6309 17.8213 27.4575 20.2095 29.0216 22.1981Z" fill="black"/>
<path d="M27.0858 30.3809C27.277 30.517 27.4971 30.5826 27.7154 30.5826C28.0551 30.5826 28.3898 30.4236 28.6018 30.1259C28.9501 29.637 28.8359 28.9582 28.3469 28.6101C24.0431 25.5457 21.4738 20.5668 21.4738 15.2913C21.4738 10.016 24.0433 5.03686 28.3469 1.97257C28.836 1.62444 28.9501 0.945729 28.6018 0.456586C28.2537 -0.0324134 27.575 -0.146619 27.086 0.201651C22.2105 3.67305 19.2998 9.31407 19.2998 15.2913C19.2997 21.2686 22.2103 26.9096 27.0858 30.3809Z" fill="black"/>
<path d="M47.2768 1.97257C51.5806 5.037 54.1501 10.016 54.1501 15.2913C54.1501 17.3978 53.7551 19.4478 52.9764 21.3841C52.7523 21.9412 53.0222 22.5743 53.5792 22.7982C53.7122 22.8517 53.8493 22.8771 53.9846 22.8771C54.4151 22.8771 54.8228 22.6194 54.9933 22.1954C55.8763 20 56.324 17.6771 56.324 15.2913C56.324 9.31407 53.4134 3.67305 48.5379 0.201651C48.0484 -0.146619 47.3699 -0.0324133 47.0219 0.456586C46.6738 0.945729 46.7878 1.62444 47.2768 1.97257Z" fill="black"/>
<path d="M12.8644 8.4757C13.0786 8.7057 13.3689 8.82208 13.6602 8.82208C13.9255 8.82208 14.1913 8.72556 14.4007 8.53063C14.8401 8.12163 14.8648 7.43378 14.4556 6.99435L12.0916 4.45515C11.6824 4.01572 10.9947 3.99137 10.5554 4.40022C10.1159 4.80922 10.0913 5.49706 10.5004 5.9365L12.8644 8.4757Z" fill="black"/>
<path d="M12.8653 19.2514L10.5014 21.7905C10.0924 22.2298 10.1169 22.9176 10.5562 23.3268C10.7656 23.5217 11.0314 23.6182 11.2966 23.6182C11.5878 23.6182 11.8782 23.5018 12.0924 23.2718L14.4564 20.7328C14.8654 20.2935 14.8409 19.6056 14.4016 19.1965C13.9623 18.7878 13.2746 18.8121 12.8653 19.2514Z" fill="black"/>
<path d="M13.6598 12.3389H10.7706C10.1703 12.3389 9.68359 12.8254 9.68359 13.4259C9.68359 14.0263 10.1703 14.5128 10.7706 14.5128H13.6599C14.2602 14.5128 14.7469 14.0263 14.7469 13.4259C14.7469 12.8254 14.2601 12.3389 13.6598 12.3389Z" fill="black"/>
</g>
<defs>
<clipPath id="clip0_2013_76">
<rect width="74" height="74" fill="white"/>
</clipPath>
</defs>
</svg>
