<svg width="24" height="23" viewBox="0 0 24 23" fill="none" xmlns="http://www.w3.org/2000/svg">
<g clip-path="url(#clip0_15_1168)">
<path d="M11.6366 22.8333C17.9419 22.8333 23.0533 17.7219 23.0533 11.4167C23.0533 5.11142 17.9419 0 11.6366 0C5.33139 0 0.219971 5.11142 0.219971 11.4167C0.219971 17.7219 5.33139 22.8333 11.6366 22.8333Z" fill="#29A71A"/>
<path d="M16.6703 6.38295C15.4825 5.18329 13.9051 4.44758 12.2226 4.30852C10.5401 4.16946 8.86334 4.63621 7.49469 5.62458C6.12603 6.61294 5.15562 8.05786 4.75849 9.6987C4.36136 11.3395 4.56365 13.0683 5.32888 14.5731L4.57771 18.22C4.56992 18.2563 4.5697 18.2938 4.57707 18.3302C4.58443 18.3665 4.59923 18.401 4.62053 18.4314C4.65173 18.4776 4.69627 18.5131 4.74819 18.5333C4.80012 18.5534 4.85696 18.5573 4.91113 18.5443L8.48533 17.6971C9.98592 18.443 11.7025 18.6323 13.3295 18.2313C14.9566 17.8303 16.3886 16.8651 17.3708 15.5074C18.353 14.1497 18.8217 12.4876 18.6934 10.8168C18.5651 9.14594 17.8482 7.57482 16.6703 6.38295ZM15.5559 15.2776C14.734 16.0971 13.6757 16.6381 12.5302 16.8243C11.3846 17.0105 10.2094 16.8325 9.17033 16.3155L8.67215 16.069L6.48092 16.5879L6.48741 16.5607L6.94148 14.3552L6.69758 13.8738C6.16665 12.8311 5.97936 11.6471 6.16254 10.4915C6.34571 9.33578 6.88995 8.26772 7.7173 7.44029C8.75687 6.40104 10.1666 5.81723 11.6366 5.81723C13.1065 5.81723 14.5163 6.40104 15.5559 7.44029C15.5647 7.45045 15.5743 7.45998 15.5844 7.46884C16.6111 8.51076 17.1843 9.91633 17.1789 11.3791C17.1736 12.8418 16.5902 14.2432 15.5559 15.2776Z" fill="white"/>
<path d="M15.3615 13.6598C15.0929 14.0827 14.6687 14.6003 14.1355 14.7288C13.2014 14.9545 11.7678 14.7366 9.98397 13.0734L9.96192 13.0539C8.39342 11.5996 7.98606 10.3892 8.08466 9.42911C8.13914 8.88423 8.59322 8.39123 8.97593 8.06949C9.03644 8.01785 9.10819 7.98108 9.18545 7.96213C9.26271 7.94318 9.34333 7.94257 9.42086 7.96034C9.4984 7.97812 9.5707 8.01379 9.63199 8.06451C9.69327 8.11522 9.74184 8.17958 9.7738 8.25242L10.3511 9.54977C10.3886 9.63389 10.4025 9.72663 10.3913 9.81806C10.3801 9.90948 10.3443 9.99613 10.2876 10.0687L9.99565 10.4475C9.93302 10.5258 9.89522 10.6209 9.88713 10.7208C9.87904 10.8207 9.90102 10.9207 9.95024 11.008C10.1137 11.2947 10.5055 11.7163 10.9401 12.1068C11.4279 12.5479 11.9689 12.9514 12.3114 13.0889C12.4031 13.1264 12.5038 13.1355 12.6007 13.1152C12.6976 13.0948 12.7862 13.0459 12.855 12.9748L13.1936 12.6336C13.259 12.5691 13.3402 12.5232 13.4291 12.5004C13.518 12.4776 13.6113 12.4788 13.6996 12.5038L15.0709 12.893C15.1465 12.9162 15.2159 12.9564 15.2736 13.0105C15.3313 13.0647 15.3759 13.1312 15.4039 13.2052C15.432 13.2792 15.4427 13.3586 15.4354 13.4374C15.428 13.5162 15.4027 13.5923 15.3615 13.6598Z" fill="white"/>
</g>
<defs>
<clipPath id="clip0_15_1168">
<rect width="22.8333" height="22.8333" fill="white" transform="translate(0.219971)"/>
</clipPath>
</defs>
</svg>
