<svg width="22" height="22" viewBox="0 0 22 22" fill="none" xmlns="http://www.w3.org/2000/svg">
<g clip-path="url(#clip0_15_1418)">
<path d="M11 22C17.0751 22 22 17.0751 22 11C22 4.92487 17.0751 0 11 0C4.92487 0 0 4.92487 0 11C0 17.0751 4.92487 22 11 22Z" fill="#FF0000"/>
<path d="M14.5995 6.86197H7.40032C7.11262 6.86197 6.82774 6.91866 6.56196 7.0288C6.29618 7.13894 6.0547 7.30038 5.85134 7.50388C5.64797 7.70738 5.48669 7.94896 5.37673 8.21481C5.26676 8.48067 5.21026 8.76559 5.21045 9.05328V12.9467C5.21026 13.2344 5.26676 13.5193 5.37673 13.7852C5.48669 14.051 5.64797 14.2926 5.85134 14.4961C6.0547 14.6996 6.29618 14.861 6.56196 14.9712C6.82774 15.0813 7.11262 15.138 7.40032 15.138H14.5995C14.8872 15.138 15.1721 15.0813 15.4379 14.9712C15.7037 14.861 15.9451 14.6996 16.1485 14.4961C16.3519 14.2926 16.5132 14.051 16.6231 13.7852C16.7331 13.5193 16.7896 13.2344 16.7894 12.9467V9.05328C16.7896 8.76559 16.7331 8.48067 16.6231 8.21481C16.5132 7.94896 16.3519 7.70738 16.1485 7.50388C15.9451 7.30038 15.7037 7.13894 15.4379 7.0288C15.1721 6.91866 14.8872 6.86197 14.5995 6.86197ZM9.4744 12.7745V9.22552L12.5254 11L9.4744 12.7745Z" fill="white"/>
</g>
<defs>
<clipPath id="clip0_15_1418">
<rect width="22" height="22" fill="white"/>
</clipPath>
</defs>
</svg>
